%TF.GenerationSoftware,KiCad,Pcbnew,10.0.5*%
%TF.CreationDate,2026-08-17T15:23:32-03:00*%
%TF.ProjectId,placa_nara,706c6163-615f-46e6-9172-612e6b696361,PEDRO PAULO e DAVID MANH_ES*%
%TF.SameCoordinates,Original*%
%TF.FileFunction,Copper,L2,Bot*%
%TF.FilePolarity,Positive*%
%FSLAX46Y46*%
G04 Gerber Fmt 4.6, Leading zero omitted, Abs format (unit mm)*
G04 Created by KiCad (PCBNEW 10.0.5) date 2026-08-17 15:23:32*
%MOMM*%
%LPD*%
G01*
G04 APERTURE LIST*
G04 Aperture macros list*
%AMRoundRect*
0 Rectangle with rounded corners*
0 $1 Rounding radius*
0 $2 $3 $4 $5 $6 $7 $8 $9 X,Y pos of 4 corners*
0 Add a 4 corners polygon primitive as box body*
4,1,4,$2,$3,$4,$5,$6,$7,$8,$9,$2,$3,0*
0 Add four circle primitives for the rounded corners*
1,1,$1+$1,$2,$3*
1,1,$1+$1,$4,$5*
1,1,$1+$1,$6,$7*
1,1,$1+$1,$8,$9*
0 Add four rect primitives between the rounded corners*
20,1,$1+$1,$2,$3,$4,$5,0*
20,1,$1+$1,$4,$5,$6,$7,0*
20,1,$1+$1,$6,$7,$8,$9,0*
20,1,$1+$1,$8,$9,$2,$3,0*%
G04 Aperture macros list end*
%ADD10C,0.300000*%
%TA.AperFunction,NonConductor*%
%ADD11C,0.300000*%
%TD*%
%TA.AperFunction,ComponentPad*%
%ADD12C,2.600000*%
%TD*%
%TA.AperFunction,ComponentPad*%
%ADD13RoundRect,0.250000X1.050000X-1.050000X1.050000X1.050000X-1.050000X1.050000X-1.050000X-1.050000X0*%
%TD*%
%TA.AperFunction,ComponentPad*%
%ADD14O,1.900000X1.524000*%
%TD*%
%TA.AperFunction,ComponentPad*%
%ADD15R,1.700000X1.700000*%
%TD*%
%TA.AperFunction,ComponentPad*%
%ADD16C,1.700000*%
%TD*%
%TA.AperFunction,ComponentPad*%
%ADD17C,1.524000*%
%TD*%
%TA.AperFunction,Conductor*%
%ADD18C,1.000000*%
%TD*%
G04 APERTURE END LIST*
D10*
D11*
X109945489Y-60800828D02*
X109945489Y-59300828D01*
X109945489Y-59300828D02*
X109088346Y-60800828D01*
X109088346Y-60800828D02*
X109088346Y-59300828D01*
X108088345Y-59300828D02*
X107802631Y-59300828D01*
X107802631Y-59300828D02*
X107659774Y-59372257D01*
X107659774Y-59372257D02*
X107516917Y-59515114D01*
X107516917Y-59515114D02*
X107445488Y-59800828D01*
X107445488Y-59800828D02*
X107445488Y-60300828D01*
X107445488Y-60300828D02*
X107516917Y-60586542D01*
X107516917Y-60586542D02*
X107659774Y-60729400D01*
X107659774Y-60729400D02*
X107802631Y-60800828D01*
X107802631Y-60800828D02*
X108088345Y-60800828D01*
X108088345Y-60800828D02*
X108231203Y-60729400D01*
X108231203Y-60729400D02*
X108374060Y-60586542D01*
X108374060Y-60586542D02*
X108445488Y-60300828D01*
X108445488Y-60300828D02*
X108445488Y-59800828D01*
X108445488Y-59800828D02*
X108374060Y-59515114D01*
X108374060Y-59515114D02*
X108231203Y-59372257D01*
X108231203Y-59372257D02*
X108088345Y-59300828D01*
X106302631Y-60015114D02*
X106088345Y-60086542D01*
X106088345Y-60086542D02*
X106016916Y-60157971D01*
X106016916Y-60157971D02*
X105945488Y-60300828D01*
X105945488Y-60300828D02*
X105945488Y-60515114D01*
X105945488Y-60515114D02*
X106016916Y-60657971D01*
X106016916Y-60657971D02*
X106088345Y-60729400D01*
X106088345Y-60729400D02*
X106231202Y-60800828D01*
X106231202Y-60800828D02*
X106802631Y-60800828D01*
X106802631Y-60800828D02*
X106802631Y-59300828D01*
X106802631Y-59300828D02*
X106302631Y-59300828D01*
X106302631Y-59300828D02*
X106159774Y-59372257D01*
X106159774Y-59372257D02*
X106088345Y-59443685D01*
X106088345Y-59443685D02*
X106016916Y-59586542D01*
X106016916Y-59586542D02*
X106016916Y-59729400D01*
X106016916Y-59729400D02*
X106088345Y-59872257D01*
X106088345Y-59872257D02*
X106159774Y-59943685D01*
X106159774Y-59943685D02*
X106302631Y-60015114D01*
X106302631Y-60015114D02*
X106802631Y-60015114D01*
X104588345Y-60800828D02*
X105302631Y-60800828D01*
X105302631Y-60800828D02*
X105302631Y-59300828D01*
X104088345Y-60015114D02*
X103588345Y-60015114D01*
X103374059Y-60800828D02*
X104088345Y-60800828D01*
X104088345Y-60800828D02*
X104088345Y-59300828D01*
X104088345Y-59300828D02*
X103374059Y-59300828D01*
X102731202Y-60800828D02*
X102731202Y-59300828D01*
X102731202Y-59300828D02*
X101874059Y-60800828D01*
X101874059Y-60800828D02*
X101874059Y-59300828D01*
X101231201Y-60372257D02*
X100516916Y-60372257D01*
X101374058Y-60800828D02*
X100874058Y-59300828D01*
X100874058Y-59300828D02*
X100374058Y-60800828D01*
X99016916Y-60800828D02*
X99516916Y-60086542D01*
X99874059Y-60800828D02*
X99874059Y-59300828D01*
X99874059Y-59300828D02*
X99302630Y-59300828D01*
X99302630Y-59300828D02*
X99159773Y-59372257D01*
X99159773Y-59372257D02*
X99088344Y-59443685D01*
X99088344Y-59443685D02*
X99016916Y-59586542D01*
X99016916Y-59586542D02*
X99016916Y-59800828D01*
X99016916Y-59800828D02*
X99088344Y-59943685D01*
X99088344Y-59943685D02*
X99159773Y-60015114D01*
X99159773Y-60015114D02*
X99302630Y-60086542D01*
X99302630Y-60086542D02*
X99874059Y-60086542D01*
X98445487Y-60372257D02*
X97731202Y-60372257D01*
X98588344Y-60800828D02*
X98088344Y-59300828D01*
X98088344Y-59300828D02*
X97588344Y-60800828D01*
X96016916Y-59443685D02*
X95945488Y-59372257D01*
X95945488Y-59372257D02*
X95802631Y-59300828D01*
X95802631Y-59300828D02*
X95445488Y-59300828D01*
X95445488Y-59300828D02*
X95302631Y-59372257D01*
X95302631Y-59372257D02*
X95231202Y-59443685D01*
X95231202Y-59443685D02*
X95159773Y-59586542D01*
X95159773Y-59586542D02*
X95159773Y-59729400D01*
X95159773Y-59729400D02*
X95231202Y-59943685D01*
X95231202Y-59943685D02*
X96088345Y-60800828D01*
X96088345Y-60800828D02*
X95159773Y-60800828D01*
X94231202Y-59300828D02*
X94088345Y-59300828D01*
X94088345Y-59300828D02*
X93945488Y-59372257D01*
X93945488Y-59372257D02*
X93874060Y-59443685D01*
X93874060Y-59443685D02*
X93802631Y-59586542D01*
X93802631Y-59586542D02*
X93731202Y-59872257D01*
X93731202Y-59872257D02*
X93731202Y-60229400D01*
X93731202Y-60229400D02*
X93802631Y-60515114D01*
X93802631Y-60515114D02*
X93874060Y-60657971D01*
X93874060Y-60657971D02*
X93945488Y-60729400D01*
X93945488Y-60729400D02*
X94088345Y-60800828D01*
X94088345Y-60800828D02*
X94231202Y-60800828D01*
X94231202Y-60800828D02*
X94374060Y-60729400D01*
X94374060Y-60729400D02*
X94445488Y-60657971D01*
X94445488Y-60657971D02*
X94516917Y-60515114D01*
X94516917Y-60515114D02*
X94588345Y-60229400D01*
X94588345Y-60229400D02*
X94588345Y-59872257D01*
X94588345Y-59872257D02*
X94516917Y-59586542D01*
X94516917Y-59586542D02*
X94445488Y-59443685D01*
X94445488Y-59443685D02*
X94374060Y-59372257D01*
X94374060Y-59372257D02*
X94231202Y-59300828D01*
X93159774Y-59443685D02*
X93088346Y-59372257D01*
X93088346Y-59372257D02*
X92945489Y-59300828D01*
X92945489Y-59300828D02*
X92588346Y-59300828D01*
X92588346Y-59300828D02*
X92445489Y-59372257D01*
X92445489Y-59372257D02*
X92374060Y-59443685D01*
X92374060Y-59443685D02*
X92302631Y-59586542D01*
X92302631Y-59586542D02*
X92302631Y-59729400D01*
X92302631Y-59729400D02*
X92374060Y-59943685D01*
X92374060Y-59943685D02*
X93231203Y-60800828D01*
X93231203Y-60800828D02*
X92302631Y-60800828D01*
X91016918Y-59300828D02*
X91302632Y-59300828D01*
X91302632Y-59300828D02*
X91445489Y-59372257D01*
X91445489Y-59372257D02*
X91516918Y-59443685D01*
X91516918Y-59443685D02*
X91659775Y-59657971D01*
X91659775Y-59657971D02*
X91731203Y-59943685D01*
X91731203Y-59943685D02*
X91731203Y-60515114D01*
X91731203Y-60515114D02*
X91659775Y-60657971D01*
X91659775Y-60657971D02*
X91588346Y-60729400D01*
X91588346Y-60729400D02*
X91445489Y-60800828D01*
X91445489Y-60800828D02*
X91159775Y-60800828D01*
X91159775Y-60800828D02*
X91016918Y-60729400D01*
X91016918Y-60729400D02*
X90945489Y-60657971D01*
X90945489Y-60657971D02*
X90874060Y-60515114D01*
X90874060Y-60515114D02*
X90874060Y-60157971D01*
X90874060Y-60157971D02*
X90945489Y-60015114D01*
X90945489Y-60015114D02*
X91016918Y-59943685D01*
X91016918Y-59943685D02*
X91159775Y-59872257D01*
X91159775Y-59872257D02*
X91445489Y-59872257D01*
X91445489Y-59872257D02*
X91588346Y-59943685D01*
X91588346Y-59943685D02*
X91659775Y-60015114D01*
X91659775Y-60015114D02*
X91731203Y-60157971D01*
X90231204Y-60657971D02*
X90159775Y-60729400D01*
X90159775Y-60729400D02*
X90231204Y-60800828D01*
X90231204Y-60800828D02*
X90302632Y-60729400D01*
X90302632Y-60729400D02*
X90231204Y-60657971D01*
X90231204Y-60657971D02*
X90231204Y-60800828D01*
X89588346Y-59443685D02*
X89516918Y-59372257D01*
X89516918Y-59372257D02*
X89374061Y-59300828D01*
X89374061Y-59300828D02*
X89016918Y-59300828D01*
X89016918Y-59300828D02*
X88874061Y-59372257D01*
X88874061Y-59372257D02*
X88802632Y-59443685D01*
X88802632Y-59443685D02*
X88731203Y-59586542D01*
X88731203Y-59586542D02*
X88731203Y-59729400D01*
X88731203Y-59729400D02*
X88802632Y-59943685D01*
X88802632Y-59943685D02*
X89659775Y-60800828D01*
X89659775Y-60800828D02*
X88731203Y-60800828D01*
D12*
%TO.P,J1,2,Pin_2_2*%
%TO.N,/3.3V*%
X131500000Y-131420000D03*
D13*
%TO.P,J1,1,Pin_1_1*%
%TO.N,GND*%
X131500000Y-136500000D03*
%TD*%
D14*
%TO.P,U1,1,VIN_1*%
%TO.N,unconnected-(U1-VIN-Pad1)*%
X87000000Y-134560000D03*
%TO.P,U1,2,GND_2*%
%TO.N,unconnected-(U1-GND-Pad2)*%
X87000000Y-132020000D03*
%TO.P,U1,3,GPIO13_3*%
%TO.N,/BATTERY_VOLTAGE_1*%
X87000000Y-129480000D03*
%TO.P,U1,4,GPIO12_4*%
%TO.N,unconnected-(U1-GPIO12-Pad4)*%
X87000000Y-126940000D03*
%TO.P,U1,5,GPIO14_5*%
%TO.N,/MOTOR_RIGHT_RPWM*%
X87000000Y-124400000D03*
%TO.P,U1,6,GPIO27_6*%
%TO.N,/MOTOR_RIGHT_LPWM*%
X87000000Y-121860000D03*
%TO.P,U1,7,GPIO26_7*%
%TO.N,/MOTOR_LEFT_LPWM*%
X87000000Y-119320000D03*
%TO.P,U1,8,GPIO25_8*%
%TO.N,/MOTOR_LEFT_RPWM*%
X87000000Y-116780000D03*
%TO.P,U1,9,GPIO33_9*%
%TO.N,/ENCODER_LEFT_A_LV*%
X87000000Y-114240000D03*
%TO.P,U1,10,GPIO32_10*%
%TO.N,/ENCODER_LEFT_B_LV*%
X87000000Y-111700000D03*
%TO.P,U1,11,GPIO35_11*%
%TO.N,/ENCODER_RIGHT_B_LV*%
X87000000Y-109160000D03*
%TO.P,U1,12,GPIO34_12*%
%TO.N,/ENCODER_RIGHT_A_LV*%
X87000000Y-106620000D03*
%TO.P,U1,13,GPIO39_13*%
%TO.N,unconnected-(U1-GPIO39-Pad13)*%
X87000000Y-104080000D03*
%TO.P,U1,14,GPIO36_14*%
%TO.N,unconnected-(U1-GPIO36-Pad14)*%
X87000000Y-101540000D03*
%TO.P,U1,15,EN_15*%
%TO.N,unconnected-(U1-EN-Pad15)*%
X87000000Y-99000000D03*
%TO.P,U1,16,3.3v_16*%
%TO.N,/3.3V*%
X112400000Y-134560000D03*
%TO.P,U1,17,GND_17*%
%TO.N,GND*%
X112400000Y-132020000D03*
%TO.P,U1,18,GPIO15_18*%
%TO.N,unconnected-(U1-GPIO15-Pad18)*%
X112400000Y-129480000D03*
%TO.P,U1,19,GPIO2_19*%
%TO.N,unconnected-(U1-GPIO2-Pad19)*%
X112400000Y-126940000D03*
%TO.P,U1,20,GPIO4_20*%
%TO.N,unconnected-(U1-GPIO4-Pad20)*%
X112400000Y-124400000D03*
%TO.P,U1,21,GPIO16_21*%
%TO.N,unconnected-(U1-GPIO16-Pad21)*%
X112400000Y-121860000D03*
%TO.P,U1,22,GPIO17_22*%
%TO.N,unconnected-(U1-GPIO17-Pad22)*%
X112400000Y-119320000D03*
%TO.P,U1,23,GPIO5_23*%
%TO.N,unconnected-(U1-GPIO5-Pad23)*%
X112400000Y-116780000D03*
%TO.P,U1,24,GPIO18_24*%
%TO.N,/BATTERY_VOLTAGE_2*%
X112400000Y-114240000D03*
%TO.P,U1,25,GPIO19_25*%
%TO.N,unconnected-(U1-GPIO19-Pad25)*%
X112400000Y-111700000D03*
%TO.P,U1,26,GPIO21_26*%
%TO.N,/IMU_SDA*%
X112400000Y-109160000D03*
%TO.P,U1,27,GPIO3_27*%
%TO.N,unconnected-(U1-GPIO3-Pad27)*%
X112400000Y-106620000D03*
%TO.P,U1,28,GPIO1_28*%
%TO.N,unconnected-(U1-GPIO1-Pad28)*%
X112400000Y-104080000D03*
%TO.P,U1,29,GPIO22_29*%
%TO.N,/IMU_SCL*%
X112400000Y-101540000D03*
%TO.P,U1,30,GPIO23_30*%
%TO.N,/MOTOR_ENABLE*%
X112400000Y-99000000D03*
%TD*%
D15*
%TO.P,ENCODER_RIGHT1,1,Pin_1_1*%
%TO.N,/5V*%
X127000000Y-149500000D03*
D16*
%TO.P,ENCODER_RIGHT1,2,Pin_2_2*%
%TO.N,GND*%
X129540000Y-149500000D03*
%TO.P,ENCODER_RIGHT1,3,Pin_3_3*%
%TO.N,/ENCODER_RIGHT_A_HV*%
X132080000Y-149500000D03*
%TO.P,ENCODER_RIGHT1,4,Pin_4_4*%
%TO.N,/ENCODER_RIGHT_B_HV*%
X134620000Y-149500000D03*
%TD*%
D15*
%TO.P,ENCODER_LEFT1,1,Pin_1_1*%
%TO.N,/5V*%
X67500000Y-149500000D03*
D16*
%TO.P,ENCODER_LEFT1,2,Pin_2_2*%
%TO.N,GND*%
X70040000Y-149500000D03*
%TO.P,ENCODER_LEFT1,3,Pin_3_3*%
%TO.N,/ENCODER_LEFT_A_HV*%
X72580000Y-149500000D03*
%TO.P,ENCODER_LEFT1,4,Pin_4_4*%
%TO.N,/ENCODER_LEFT_B_HV*%
X75120000Y-149500000D03*
%TD*%
D15*
%TO.P,SENSOR_TENSAO1,1,Pin_1_1*%
%TO.N,/BATTERY_VOLTAGE_1*%
X78500000Y-130225000D03*
D16*
%TO.P,SENSOR_TENSAO1,2,Pin_2_2*%
%TO.N,/BATTERY_VOLTAGE_2*%
X78500000Y-132765000D03*
%TD*%
D15*
%TO.P,MOTOR_LEFT1,1,Pin_1_1*%
%TO.N,/3.3V*%
X88000000Y-77000000D03*
D16*
%TO.P,MOTOR_LEFT1,2,Pin_2_2*%
%TO.N,GND*%
X85460000Y-77000000D03*
%TO.P,MOTOR_LEFT1,3,Pin_3_3*%
%TO.N,/MOTOR_ENABLE*%
X82920000Y-77000000D03*
%TO.P,MOTOR_LEFT1,4,Pin_4_4*%
X80380000Y-77000000D03*
%TO.P,MOTOR_LEFT1,5,Pin_5_5*%
%TO.N,/MOTOR_LEFT_LPWM*%
X77840000Y-77000000D03*
%TO.P,MOTOR_LEFT1,6,Pin_6_6*%
%TO.N,/MOTOR_LEFT_RPWM*%
X75300000Y-77000000D03*
%TD*%
D17*
%TO.P,U3,1,VCC_1*%
%TO.N,/3.3V*%
X121515000Y-105737000D03*
%TO.P,U3,2,GND_2*%
%TO.N,GND*%
X121515000Y-108277000D03*
%TO.P,U3,3,SCL_3*%
%TO.N,/IMU_SCL*%
X121515000Y-110817000D03*
%TO.P,U3,4,SDA_4*%
%TO.N,/IMU_SDA*%
X121515000Y-113357000D03*
%TO.P,U3,5,XDA_5*%
%TO.N,unconnected-(U3-XDA-Pad5)*%
X121515000Y-115897000D03*
%TO.P,U3,6,XCL_6*%
%TO.N,unconnected-(U3-XCL-Pad6)*%
X121515000Y-118437000D03*
%TO.P,U3,7,ADD_7*%
%TO.N,unconnected-(U3-ADD-Pad7)*%
X121515000Y-120977000D03*
%TO.P,U3,8,INT_8*%
%TO.N,unconnected-(U3-INT-Pad8)*%
X121515000Y-123517000D03*
%TD*%
D16*
%TO.P,U2,1,HV1_1*%
%TO.N,/ENCODER_RIGHT_A_HV*%
X67160000Y-106500000D03*
%TO.P,U2,2,HV2_2*%
%TO.N,/ENCODER_RIGHT_B_HV*%
X67160000Y-109040000D03*
D15*
%TO.P,U2,3,HV_3*%
%TO.N,/5V*%
X67160000Y-111580000D03*
%TO.P,U2,4,GND_4*%
%TO.N,GND*%
X67160000Y-114120000D03*
D16*
%TO.P,U2,5,HV3_5*%
%TO.N,/ENCODER_LEFT_A_HV*%
X67160000Y-116660000D03*
%TO.P,U2,6,HV4_6*%
%TO.N,/ENCODER_LEFT_B_HV*%
X67160000Y-119200000D03*
%TO.P,U2,7,LV1_7*%
%TO.N,/ENCODER_RIGHT_A_LV*%
X77500000Y-106500000D03*
%TO.P,U2,8,LV2_8*%
%TO.N,/ENCODER_RIGHT_B_LV*%
X77500000Y-109040000D03*
D15*
%TO.P,U2,9,LV_9*%
%TO.N,/3.3V*%
X77500000Y-111580000D03*
%TO.P,U2,10,GND_10*%
%TO.N,GND*%
X77500000Y-114120000D03*
D16*
%TO.P,U2,11,LV3_11*%
%TO.N,/ENCODER_LEFT_A_LV*%
X77500000Y-116660000D03*
%TO.P,U2,12,LV4_12*%
%TO.N,/ENCODER_LEFT_B_LV*%
X77500000Y-119200000D03*
%TD*%
D15*
%TO.P,MOTOR_RIGHT1,1,Pin_1_1*%
%TO.N,/3.3V*%
X111500000Y-77000000D03*
D16*
%TO.P,MOTOR_RIGHT1,2,Pin_2_2*%
%TO.N,GND*%
X114040000Y-77000000D03*
%TO.P,MOTOR_RIGHT1,3,Pin_3_3*%
%TO.N,/MOTOR_ENABLE*%
X116580000Y-77000000D03*
%TO.P,MOTOR_RIGHT1,4,Pin_4_4*%
X119120000Y-77000000D03*
%TO.P,MOTOR_RIGHT1,5,Pin_5_5*%
%TO.N,/MOTOR_RIGHT_LPWM*%
X121660000Y-77000000D03*
%TO.P,MOTOR_RIGHT1,6,Pin_6_6*%
%TO.N,/MOTOR_RIGHT_RPWM*%
X124200000Y-77000000D03*
%TD*%
D15*
%TO.P,JETSON1,1,Pin_1_1*%
%TO.N,/5V*%
X66500000Y-95500000D03*
D16*
%TO.P,JETSON1,2,Pin_2_2*%
%TO.N,GND*%
X66500000Y-92960000D03*
%TD*%
%TO.N,/3.3V*%
D18*
X131500000Y-131420000D02*
X131500000Y-131000000D01*
X131500000Y-131000000D02*
X125500000Y-125000000D01*
%TO.N,/BATTERY_VOLTAGE_1*%
X79225000Y-129500000D02*
X86980000Y-129500000D01*
X78500000Y-130225000D02*
X79225000Y-129500000D01*
X86980000Y-129500000D02*
X87000000Y-129480000D01*
%TO.N,/MOTOR_RIGHT_RPWM*%
X110400000Y-101000000D02*
X87000000Y-124400000D01*
X110500000Y-98073261D02*
X110500000Y-101000000D01*
X124200000Y-77000000D02*
X124000000Y-77000000D01*
X110500000Y-101000000D02*
X110400000Y-101000000D01*
X114000000Y-87000000D02*
X114000000Y-94573261D01*
X114000000Y-94573261D02*
X110500000Y-98073261D01*
X124000000Y-77000000D02*
X114000000Y-87000000D01*
%TO.N,/MOTOR_RIGHT_LPWM*%
X87140000Y-121860000D02*
X87000000Y-121860000D01*
X108857540Y-100142460D02*
X87140000Y-121860000D01*
X108857540Y-89802460D02*
X108857540Y-100142460D01*
X121660000Y-77000000D02*
X108857540Y-89802460D01*
%TO.N,/MOTOR_LEFT_LPWM*%
X77840000Y-79340000D02*
X77840000Y-77000000D01*
X90857540Y-115462460D02*
X90857540Y-92357540D01*
X90857540Y-92357540D02*
X77840000Y-79340000D01*
X87000000Y-119320000D02*
X90857540Y-115462460D01*
%TO.N,/MOTOR_LEFT_RPWM*%
X75300000Y-77000000D02*
X75300000Y-84902998D01*
X88750000Y-98352998D02*
X88750000Y-115030000D01*
X88750000Y-115030000D02*
X87000000Y-116780000D01*
X75300000Y-84902998D02*
X88750000Y-98352998D01*
%TO.N,/ENCODER_LEFT_A_LV*%
X78000000Y-121000000D02*
X78150000Y-120850000D01*
X78183453Y-120850000D02*
X79150000Y-119883453D01*
X79150000Y-119850000D02*
X84760000Y-114240000D01*
X77500000Y-116660000D02*
X75850000Y-118310000D01*
X78150000Y-120850000D02*
X78183453Y-120850000D01*
X75850000Y-119883453D02*
X76966547Y-121000000D01*
X76966547Y-121000000D02*
X78000000Y-121000000D01*
X75850000Y-118310000D02*
X75850000Y-119883453D01*
X84760000Y-114240000D02*
X87000000Y-114240000D01*
X79150000Y-119883453D02*
X79150000Y-119850000D01*
%TO.N,/ENCODER_LEFT_B_LV*%
X85000000Y-111700000D02*
X87000000Y-111700000D01*
X77500000Y-119200000D02*
X85000000Y-111700000D01*
%TO.N,/ENCODER_RIGHT_B_LV*%
X77500000Y-109040000D02*
X86880000Y-109040000D01*
X86880000Y-109040000D02*
X87000000Y-109160000D01*
%TO.N,/ENCODER_RIGHT_A_LV*%
X77500000Y-106500000D02*
X86880000Y-106500000D01*
X86880000Y-106500000D02*
X87000000Y-106620000D01*
%TO.N,/3.3V*%
X116000000Y-72500000D02*
X126000000Y-72500000D01*
X126000000Y-72500000D02*
X129000000Y-75500000D01*
X85500000Y-74500000D02*
X88000000Y-77000000D01*
X111500000Y-77000000D02*
X88000000Y-77000000D01*
X125500000Y-125000000D02*
X125500000Y-109500000D01*
X115940000Y-134560000D02*
X125500000Y-125000000D01*
X112400000Y-134560000D02*
X115940000Y-134560000D01*
X77500000Y-111580000D02*
X75850000Y-109930000D01*
X75850000Y-87291476D02*
X73650000Y-85091476D01*
X125500000Y-109500000D02*
X121737000Y-105737000D01*
X73650000Y-76316547D02*
X75466547Y-74500000D01*
X75850000Y-109930000D02*
X75850000Y-87291476D01*
X129000000Y-87500000D02*
X121515000Y-94985000D01*
X121737000Y-105737000D02*
X121515000Y-105737000D01*
X73650000Y-85091476D02*
X73650000Y-76316547D01*
X111500000Y-77000000D02*
X116000000Y-72500000D01*
X121515000Y-94985000D02*
X121515000Y-105737000D01*
X75466547Y-74500000D02*
X85500000Y-74500000D01*
X129000000Y-75500000D02*
X129000000Y-87500000D01*
%TO.N,GND*%
X127500000Y-76128069D02*
X125421931Y-74050000D01*
X124000000Y-110762000D02*
X121515000Y-108277000D01*
X85460000Y-77460000D02*
X85460000Y-77000000D01*
X67702081Y-92960000D02*
X73500000Y-98757919D01*
X124000000Y-124500000D02*
X124000000Y-110762000D01*
X116480000Y-132020000D02*
X124000000Y-124500000D01*
X121515000Y-108277000D02*
X119953000Y-106715000D01*
X114040000Y-78202081D02*
X113242081Y-79000000D01*
X65510000Y-115770000D02*
X67160000Y-114120000D01*
X113242081Y-79000000D02*
X87000000Y-79000000D01*
X119953000Y-105089998D02*
X120021499Y-105021499D01*
X125421931Y-74050000D02*
X116990000Y-74050000D01*
X120021499Y-105021499D02*
X120021499Y-93978501D01*
X66500000Y-92960000D02*
X67702081Y-92960000D01*
X65510000Y-141728478D02*
X65510000Y-115770000D01*
X116990000Y-74050000D02*
X114040000Y-77000000D01*
X73500000Y-98757919D02*
X73500000Y-111000000D01*
X119953000Y-106715000D02*
X119953000Y-105089998D01*
X120021499Y-93978501D02*
X127500000Y-86500000D01*
X76620000Y-114120000D02*
X77500000Y-114120000D01*
X70040000Y-146258478D02*
X65510000Y-141728478D01*
X70040000Y-149500000D02*
X70040000Y-146258478D01*
X114040000Y-77000000D02*
X114040000Y-78202081D01*
X112400000Y-132020000D02*
X116480000Y-132020000D01*
X87000000Y-79000000D02*
X85460000Y-77460000D01*
X127500000Y-86500000D02*
X127500000Y-76128069D01*
X73500000Y-111000000D02*
X76620000Y-114120000D01*
%TO.N,/BATTERY_VOLTAGE_2*%
X78500000Y-132765000D02*
X81857000Y-136122000D01*
X90518000Y-136122000D02*
X112400000Y-114240000D01*
X81857000Y-136122000D02*
X90518000Y-136122000D01*
%TO.N,/IMU_SDA*%
X121515000Y-113357000D02*
X116597000Y-113357000D01*
X116597000Y-113357000D02*
X112400000Y-109160000D01*
%TO.N,/IMU_SCL*%
X115500000Y-109500000D02*
X115500000Y-104640000D01*
X115500000Y-104640000D02*
X112400000Y-101540000D01*
X121515000Y-110817000D02*
X116817000Y-110817000D01*
X116817000Y-110817000D02*
X115500000Y-109500000D01*
%TO.N,/MOTOR_ENABLE*%
X82920000Y-77000000D02*
X80380000Y-77000000D01*
X116580000Y-78420000D02*
X116580000Y-77000000D01*
X124883453Y-75350000D02*
X125850000Y-76316547D01*
X120770000Y-75350000D02*
X124883453Y-75350000D01*
X125850000Y-85550000D02*
X112400000Y-99000000D01*
X85500000Y-81000000D02*
X114000000Y-81000000D01*
X119120000Y-77000000D02*
X116580000Y-77000000D01*
X119120000Y-77000000D02*
X120770000Y-75350000D01*
X125850000Y-76316547D02*
X125850000Y-85550000D01*
X82920000Y-78420000D02*
X85500000Y-81000000D01*
X82920000Y-77000000D02*
X82920000Y-78420000D01*
X114000000Y-81000000D02*
X116580000Y-78420000D01*
%TO.N,/5V*%
X67500000Y-146000000D02*
X64000000Y-142500000D01*
X64000000Y-142500000D02*
X64000000Y-113980000D01*
X64000000Y-113980000D02*
X66400000Y-111580000D01*
X64210000Y-97790000D02*
X64210000Y-108630000D01*
X66500000Y-95500000D02*
X64210000Y-97790000D01*
X70450000Y-152450000D02*
X67500000Y-149500000D01*
X64210000Y-108630000D02*
X67160000Y-111580000D01*
X124050000Y-152450000D02*
X70450000Y-152450000D01*
X66400000Y-111580000D02*
X67160000Y-111580000D01*
X67500000Y-149500000D02*
X67500000Y-146000000D01*
X127000000Y-149500000D02*
X124050000Y-152450000D01*
%TO.N,/ENCODER_RIGHT_A_HV*%
X130080000Y-147500000D02*
X78500000Y-147500000D01*
X70499992Y-109839992D02*
X67160000Y-106500000D01*
X70499992Y-139499992D02*
X70499992Y-109839992D01*
X132080000Y-149500000D02*
X130080000Y-147500000D01*
X78500000Y-147500000D02*
X70499992Y-139499992D01*
%TO.N,/ENCODER_RIGHT_B_HV*%
X67843453Y-104850000D02*
X66476547Y-104850000D01*
X65510000Y-107390000D02*
X67160000Y-109040000D01*
X130620000Y-145500000D02*
X79000000Y-145500000D01*
X79000000Y-145500000D02*
X72000000Y-138500000D01*
X134620000Y-149500000D02*
X130620000Y-145500000D01*
X65510000Y-105816547D02*
X65510000Y-107390000D01*
X66476547Y-104850000D02*
X65510000Y-105816547D01*
X72000000Y-109006547D02*
X67843453Y-104850000D01*
X72000000Y-138500000D02*
X72000000Y-109006547D01*
%TO.N,/ENCODER_LEFT_A_HV*%
X68810000Y-118310000D02*
X67160000Y-116660000D01*
X75803453Y-151150000D02*
X76770000Y-150183453D01*
X68810000Y-140190000D02*
X68810000Y-118310000D01*
X76770000Y-148770000D02*
X69000000Y-140500000D01*
X74230000Y-151150000D02*
X75803453Y-151150000D01*
X72580000Y-149500000D02*
X74230000Y-151150000D01*
X76770000Y-150183453D02*
X76770000Y-148770000D01*
X69000000Y-140500000D02*
X68810000Y-140190000D01*
%TO.N,/ENCODER_LEFT_B_HV*%
X67160000Y-141540000D02*
X67160000Y-119200000D01*
X75120000Y-149500000D02*
X67160000Y-141540000D01*
%TD*%
%TA.AperFunction,Conductor*%
%TO.N,GND*%
G36*
X71155270Y-150261717D02*
G01*
X71155270Y-150261716D01*
X71194622Y-150207555D01*
X71199232Y-150198507D01*
X71247205Y-150147709D01*
X71315025Y-150130912D01*
X71381161Y-150153447D01*
X71420204Y-150198504D01*
X71424949Y-150207817D01*
X71549890Y-150379786D01*
X71700213Y-150530109D01*
X71872179Y-150655048D01*
X71872181Y-150655049D01*
X71872184Y-150655051D01*
X72061588Y-150751557D01*
X72263757Y-150817246D01*
X72473713Y-150850500D01*
X72473714Y-150850500D01*
X72478525Y-150851262D01*
X72478357Y-150852321D01*
X72538829Y-150875362D01*
X72551503Y-150886423D01*
X72902898Y-151237819D01*
X72936383Y-151299142D01*
X72931399Y-151368834D01*
X72889527Y-151424767D01*
X72824063Y-151449184D01*
X72815217Y-151449500D01*
X70915782Y-151449500D01*
X70848743Y-151429815D01*
X70828101Y-151413181D01*
X70405280Y-150990360D01*
X70371795Y-150929037D01*
X70376779Y-150859345D01*
X70418651Y-150803412D01*
X70454644Y-150784748D01*
X70558215Y-150751096D01*
X70747554Y-150654622D01*
X70801716Y-150615270D01*
X70801717Y-150615270D01*
X70169408Y-149982962D01*
X70232993Y-149965925D01*
X70347007Y-149900099D01*
X70440099Y-149807007D01*
X70505925Y-149692993D01*
X70522962Y-149629408D01*
X71155270Y-150261717D01*
G37*
%TD.AperFunction*%
%TA.AperFunction,Conductor*%
G36*
X65729334Y-113768099D02*
G01*
X65785267Y-113809971D01*
X65806262Y-113866262D01*
X65810000Y-113870000D01*
X66726988Y-113870000D01*
X66694075Y-113927007D01*
X66660000Y-114054174D01*
X66660000Y-114185826D01*
X66694075Y-114312993D01*
X66726988Y-114370000D01*
X65810000Y-114370000D01*
X65810000Y-115017844D01*
X65816401Y-115077372D01*
X65816403Y-115077379D01*
X65866645Y-115212086D01*
X65866649Y-115212093D01*
X65952809Y-115327187D01*
X65952812Y-115327190D01*
X66067906Y-115413350D01*
X66067913Y-115413354D01*
X66199470Y-115462422D01*
X66255404Y-115504293D01*
X66279821Y-115569758D01*
X66264969Y-115638031D01*
X66243819Y-115666285D01*
X66129889Y-115780215D01*
X66004951Y-115952179D01*
X65908444Y-116141585D01*
X65842753Y-116343760D01*
X65836755Y-116381632D01*
X65809500Y-116553713D01*
X65809500Y-116766287D01*
X65842754Y-116976243D01*
X65903009Y-117161689D01*
X65908444Y-117178414D01*
X66004951Y-117367820D01*
X66129890Y-117539786D01*
X66280213Y-117690109D01*
X66452182Y-117815050D01*
X66460946Y-117819516D01*
X66511742Y-117867491D01*
X66528536Y-117935312D01*
X66505998Y-118001447D01*
X66460946Y-118040484D01*
X66452182Y-118044949D01*
X66280213Y-118169890D01*
X66129890Y-118320213D01*
X66004951Y-118492179D01*
X65908444Y-118681585D01*
X65842753Y-118883760D01*
X65836755Y-118921632D01*
X65809500Y-119093713D01*
X65809500Y-119306287D01*
X65842754Y-119516243D01*
X65903009Y-119701689D01*
X65908444Y-119718414D01*
X66004951Y-119907820D01*
X66132759Y-120083734D01*
X66131888Y-120084366D01*
X66158357Y-120143401D01*
X66159500Y-120160199D01*
X66159500Y-141638541D01*
X66159500Y-141638543D01*
X66159499Y-141638543D01*
X66197947Y-141831829D01*
X66197950Y-141831839D01*
X66273364Y-142013907D01*
X66273371Y-142013920D01*
X66382860Y-142177781D01*
X66382863Y-142177785D01*
X66526537Y-142321459D01*
X66526559Y-142321479D01*
X72214323Y-148009243D01*
X72247808Y-148070566D01*
X72242824Y-148140258D01*
X72200952Y-148196191D01*
X72164961Y-148214855D01*
X72061583Y-148248444D01*
X71872179Y-148344951D01*
X71700213Y-148469890D01*
X71549890Y-148620213D01*
X71424949Y-148792182D01*
X71420202Y-148801499D01*
X71372227Y-148852293D01*
X71304405Y-148869087D01*
X71238271Y-148846548D01*
X71199234Y-148801495D01*
X71194626Y-148792452D01*
X71155270Y-148738282D01*
X71155269Y-148738282D01*
X70522962Y-149370590D01*
X70505925Y-149307007D01*
X70440099Y-149192993D01*
X70347007Y-149099901D01*
X70232993Y-149034075D01*
X70169409Y-149017037D01*
X70801716Y-148384728D01*
X70747550Y-148345375D01*
X70558217Y-148248904D01*
X70356129Y-148183242D01*
X70146246Y-148150000D01*
X69933754Y-148150000D01*
X69723872Y-148183242D01*
X69723869Y-148183242D01*
X69521782Y-148248904D01*
X69332439Y-148345380D01*
X69278282Y-148384727D01*
X69278282Y-148384728D01*
X69910591Y-149017037D01*
X69847007Y-149034075D01*
X69732993Y-149099901D01*
X69639901Y-149192993D01*
X69574075Y-149307007D01*
X69557037Y-149370591D01*
X68886818Y-148700372D01*
X68853333Y-148639049D01*
X68853330Y-148639036D01*
X68850499Y-148626015D01*
X68850499Y-148602128D01*
X68844091Y-148542517D01*
X68805840Y-148439961D01*
X68793798Y-148407673D01*
X68793793Y-148407664D01*
X68707547Y-148292455D01*
X68707544Y-148292452D01*
X68592335Y-148206206D01*
X68592332Y-148206205D01*
X68592331Y-148206204D01*
X68581161Y-148202038D01*
X68525231Y-148160166D01*
X68500816Y-148094701D01*
X68500500Y-148085858D01*
X68500500Y-145901456D01*
X68462052Y-145708170D01*
X68462051Y-145708169D01*
X68462051Y-145708165D01*
X68462049Y-145708160D01*
X68386635Y-145526092D01*
X68386628Y-145526079D01*
X68277140Y-145362219D01*
X68277139Y-145362218D01*
X68137782Y-145222861D01*
X68137781Y-145222860D01*
X65036819Y-142121898D01*
X65003334Y-142060575D01*
X65000500Y-142034217D01*
X65000500Y-114445781D01*
X65020185Y-114378742D01*
X65036814Y-114358105D01*
X65598320Y-113796599D01*
X65659642Y-113763115D01*
X65729334Y-113768099D01*
G37*
%TD.AperFunction*%
%TA.AperFunction,Conductor*%
G36*
X68617786Y-109382079D02*
G01*
X68650756Y-109405676D01*
X69463173Y-110218093D01*
X69496658Y-110279416D01*
X69499492Y-110305774D01*
X69499492Y-117285209D01*
X69479807Y-117352248D01*
X69427003Y-117398003D01*
X69357845Y-117407947D01*
X69294289Y-117378922D01*
X69287811Y-117372890D01*
X68546423Y-116631502D01*
X68512938Y-116570179D01*
X68510655Y-116554697D01*
X68510500Y-116553718D01*
X68510500Y-116553713D01*
X68477246Y-116343757D01*
X68411557Y-116141588D01*
X68315051Y-115952184D01*
X68315049Y-115952181D01*
X68315048Y-115952179D01*
X68190109Y-115780213D01*
X68076181Y-115666285D01*
X68042696Y-115604962D01*
X68047680Y-115535270D01*
X68089552Y-115479337D01*
X68120529Y-115462422D01*
X68252086Y-115413354D01*
X68252093Y-115413350D01*
X68367187Y-115327190D01*
X68367190Y-115327187D01*
X68453350Y-115212093D01*
X68453354Y-115212086D01*
X68503596Y-115077379D01*
X68503598Y-115077372D01*
X68509999Y-115017844D01*
X68510000Y-115017827D01*
X68510000Y-114370000D01*
X67593012Y-114370000D01*
X67625925Y-114312993D01*
X67660000Y-114185826D01*
X67660000Y-114054174D01*
X67625925Y-113927007D01*
X67593012Y-113870000D01*
X68510000Y-113870000D01*
X68510000Y-113222172D01*
X68509999Y-113222155D01*
X68503598Y-113162627D01*
X68503596Y-113162620D01*
X68453354Y-113027913D01*
X68453352Y-113027910D01*
X68376110Y-112924729D01*
X68351692Y-112859265D01*
X68366543Y-112790992D01*
X68376105Y-112776111D01*
X68453796Y-112672331D01*
X68504091Y-112537483D01*
X68510500Y-112477873D01*
X68510499Y-110682128D01*
X68504091Y-110622517D01*
X68483676Y-110567782D01*
X68453797Y-110487671D01*
X68453793Y-110487664D01*
X68367547Y-110372455D01*
X68367544Y-110372452D01*
X68252335Y-110286206D01*
X68252328Y-110286202D01*
X68120917Y-110237189D01*
X68064983Y-110195318D01*
X68040566Y-110129853D01*
X68055418Y-110061580D01*
X68076563Y-110033332D01*
X68190104Y-109919792D01*
X68315051Y-109747816D01*
X68411557Y-109558412D01*
X68445146Y-109455035D01*
X68484581Y-109397364D01*
X68548939Y-109370165D01*
X68617786Y-109382079D01*
G37*
%TD.AperFunction*%
%TA.AperFunction,Conductor*%
G36*
X122567268Y-108975715D02*
G01*
X122594362Y-108938425D01*
X122684542Y-108761437D01*
X122745924Y-108572523D01*
X122745925Y-108572518D01*
X122764142Y-108457500D01*
X122794071Y-108394365D01*
X122853382Y-108357433D01*
X122923245Y-108358431D01*
X122974296Y-108389216D01*
X124463181Y-109878101D01*
X124496666Y-109939424D01*
X124499500Y-109965782D01*
X124499500Y-124534217D01*
X124479815Y-124601256D01*
X124463181Y-124621898D01*
X115561899Y-133523181D01*
X115500576Y-133556666D01*
X115474218Y-133559500D01*
X113399113Y-133559500D01*
X113332074Y-133539815D01*
X113326236Y-133535824D01*
X113249694Y-133480213D01*
X113092667Y-133400203D01*
X113041872Y-133352229D01*
X113025077Y-133284408D01*
X113047614Y-133218273D01*
X113092668Y-133179234D01*
X113249432Y-133099358D01*
X113410139Y-132982596D01*
X113410140Y-132982596D01*
X113550596Y-132842140D01*
X113550596Y-132842139D01*
X113667358Y-132681432D01*
X113757543Y-132504435D01*
X113818925Y-132315517D01*
X113826134Y-132270000D01*
X112715686Y-132270000D01*
X112720080Y-132265606D01*
X112772741Y-132174394D01*
X112800000Y-132072661D01*
X112800000Y-131967339D01*
X112772741Y-131865606D01*
X112720080Y-131774394D01*
X112715686Y-131770000D01*
X113826135Y-131770000D01*
X113826134Y-131769999D01*
X113818925Y-131724482D01*
X113757543Y-131535564D01*
X113667358Y-131358567D01*
X113550596Y-131197860D01*
X113550596Y-131197859D01*
X113410140Y-131057403D01*
X113249432Y-130940641D01*
X113092668Y-130860765D01*
X113041872Y-130812790D01*
X113025077Y-130744969D01*
X113047615Y-130678834D01*
X113092667Y-130639796D01*
X113249694Y-130559787D01*
X113410464Y-130442981D01*
X113550981Y-130302464D01*
X113667787Y-130141694D01*
X113758005Y-129964632D01*
X113819413Y-129775636D01*
X113850500Y-129579361D01*
X113850500Y-129380639D01*
X113819413Y-129184364D01*
X113788709Y-129089866D01*
X113758006Y-128995370D01*
X113758005Y-128995367D01*
X113690161Y-128862218D01*
X113667787Y-128818306D01*
X113550981Y-128657536D01*
X113410464Y-128517019D01*
X113249694Y-128400213D01*
X113093218Y-128320484D01*
X113042423Y-128272510D01*
X113025628Y-128204689D01*
X113048165Y-128138554D01*
X113093218Y-128099515D01*
X113249694Y-128019787D01*
X113410464Y-127902981D01*
X113550981Y-127762464D01*
X113667787Y-127601694D01*
X113758005Y-127424632D01*
X113819413Y-127235636D01*
X113850500Y-127039361D01*
X113850500Y-126840639D01*
X113819413Y-126644364D01*
X113773352Y-126502601D01*
X113758006Y-126455370D01*
X113758005Y-126455367D01*
X113667786Y-126278305D01*
X113550981Y-126117536D01*
X113410464Y-125977019D01*
X113249694Y-125860213D01*
X113093218Y-125780484D01*
X113042423Y-125732510D01*
X113025628Y-125664689D01*
X113048165Y-125598554D01*
X113093218Y-125559515D01*
X113249694Y-125479787D01*
X113410464Y-125362981D01*
X113550981Y-125222464D01*
X113667787Y-125061694D01*
X113758005Y-124884632D01*
X113819413Y-124695636D01*
X113850500Y-124499361D01*
X113850500Y-124300639D01*
X113819413Y-124104364D01*
X113758005Y-123915368D01*
X113758005Y-123915367D01*
X113667786Y-123738305D01*
X113550981Y-123577536D01*
X113410464Y-123437019D01*
X113249694Y-123320213D01*
X113093218Y-123240484D01*
X113042423Y-123192510D01*
X113025628Y-123124689D01*
X113048165Y-123058554D01*
X113093218Y-123019515D01*
X113249694Y-122939787D01*
X113410464Y-122822981D01*
X113550981Y-122682464D01*
X113667787Y-122521694D01*
X113758005Y-122344632D01*
X113819413Y-122155636D01*
X113850500Y-121959361D01*
X113850500Y-121760639D01*
X113819413Y-121564364D01*
X113758005Y-121375368D01*
X113758005Y-121375367D01*
X113667786Y-121198305D01*
X113550981Y-121037536D01*
X113410464Y-120897019D01*
X113249694Y-120780213D01*
X113093218Y-120700484D01*
X113042423Y-120652510D01*
X113025628Y-120584689D01*
X113048165Y-120518554D01*
X113093218Y-120479515D01*
X113249694Y-120399787D01*
X113410464Y-120282981D01*
X113550981Y-120142464D01*
X113667787Y-119981694D01*
X113758005Y-119804632D01*
X113819413Y-119615636D01*
X113850500Y-119419361D01*
X113850500Y-119220639D01*
X113819413Y-119024364D01*
X113786033Y-118921629D01*
X113758006Y-118835370D01*
X113758005Y-118835367D01*
X113705660Y-118732636D01*
X113667787Y-118658306D01*
X113550981Y-118497536D01*
X113410464Y-118357019D01*
X113249694Y-118240213D01*
X113093218Y-118160484D01*
X113042423Y-118112510D01*
X113025628Y-118044689D01*
X113048165Y-117978554D01*
X113093218Y-117939515D01*
X113249694Y-117859787D01*
X113410464Y-117742981D01*
X113550981Y-117602464D01*
X113667787Y-117441694D01*
X113758005Y-117264632D01*
X113819413Y-117075636D01*
X113850500Y-116879361D01*
X113850500Y-116680639D01*
X113819413Y-116484364D01*
X113786033Y-116381629D01*
X113758006Y-116295370D01*
X113758005Y-116295367D01*
X113705660Y-116192636D01*
X113667787Y-116118306D01*
X113550981Y-115957536D01*
X113410464Y-115817019D01*
X113249694Y-115700213D01*
X113093218Y-115620484D01*
X113042423Y-115572510D01*
X113025628Y-115504689D01*
X113048165Y-115438554D01*
X113093218Y-115399515D01*
X113249694Y-115319787D01*
X113410464Y-115202981D01*
X113550981Y-115062464D01*
X113667787Y-114901694D01*
X113758005Y-114724632D01*
X113819413Y-114535636D01*
X113850500Y-114339361D01*
X113850500Y-114140639D01*
X113819413Y-113944364D01*
X113776728Y-113812993D01*
X113758006Y-113755370D01*
X113758005Y-113755367D01*
X113667786Y-113578305D01*
X113550981Y-113417536D01*
X113410464Y-113277019D01*
X113249694Y-113160213D01*
X113093218Y-113080484D01*
X113042423Y-113032510D01*
X113025628Y-112964689D01*
X113048165Y-112898554D01*
X113093218Y-112859515D01*
X113249694Y-112779787D01*
X113410464Y-112662981D01*
X113550981Y-112522464D01*
X113667787Y-112361694D01*
X113758005Y-112184632D01*
X113758006Y-112184629D01*
X113759869Y-112180132D01*
X113761514Y-112180813D01*
X113796596Y-112129459D01*
X113860942Y-112102231D01*
X113929794Y-112114113D01*
X113962814Y-112137734D01*
X115819860Y-113994781D01*
X115819861Y-113994782D01*
X115959218Y-114134139D01*
X115959219Y-114134140D01*
X116036573Y-114185826D01*
X116123086Y-114243632D01*
X116229745Y-114287811D01*
X116305164Y-114319051D01*
X116498454Y-114357499D01*
X116498457Y-114357500D01*
X116498459Y-114357500D01*
X116695540Y-114357500D01*
X120703887Y-114357500D01*
X120770926Y-114377185D01*
X120776763Y-114381175D01*
X120853306Y-114436787D01*
X120870958Y-114445781D01*
X121009780Y-114516515D01*
X121060576Y-114564490D01*
X121077371Y-114632311D01*
X121054833Y-114698446D01*
X121009780Y-114737485D01*
X120853305Y-114817213D01*
X120692533Y-114934021D01*
X120552021Y-115074533D01*
X120435213Y-115235305D01*
X120344994Y-115412367D01*
X120344993Y-115412370D01*
X120283587Y-115601362D01*
X120252500Y-115797639D01*
X120252500Y-115996360D01*
X120283587Y-116192637D01*
X120344993Y-116381629D01*
X120344994Y-116381632D01*
X120432675Y-116553713D01*
X120435213Y-116558694D01*
X120552019Y-116719464D01*
X120692536Y-116859981D01*
X120853306Y-116976787D01*
X120971832Y-117037179D01*
X121009780Y-117056515D01*
X121060576Y-117104490D01*
X121077371Y-117172311D01*
X121054833Y-117238446D01*
X121009780Y-117277485D01*
X120853305Y-117357213D01*
X120692533Y-117474021D01*
X120552021Y-117614533D01*
X120435213Y-117775305D01*
X120344994Y-117952367D01*
X120344993Y-117952370D01*
X120283587Y-118141362D01*
X120252500Y-118337639D01*
X120252500Y-118536360D01*
X120283587Y-118732637D01*
X120344993Y-118921629D01*
X120344994Y-118921632D01*
X120432675Y-119093713D01*
X120435213Y-119098694D01*
X120552019Y-119259464D01*
X120692536Y-119399981D01*
X120853306Y-119516787D01*
X120971832Y-119577179D01*
X121009780Y-119596515D01*
X121060576Y-119644490D01*
X121077371Y-119712311D01*
X121054833Y-119778446D01*
X121009780Y-119817485D01*
X120853305Y-119897213D01*
X120692533Y-120014021D01*
X120552021Y-120154533D01*
X120435213Y-120315305D01*
X120344994Y-120492367D01*
X120344993Y-120492370D01*
X120283587Y-120681362D01*
X120252500Y-120877639D01*
X120252500Y-121076360D01*
X120283587Y-121272637D01*
X120344993Y-121461629D01*
X120344994Y-121461632D01*
X120429324Y-121627136D01*
X120435213Y-121638694D01*
X120552019Y-121799464D01*
X120692536Y-121939981D01*
X120853306Y-122056787D01*
X120971832Y-122117179D01*
X121009780Y-122136515D01*
X121060576Y-122184490D01*
X121077371Y-122252311D01*
X121054833Y-122318446D01*
X121009780Y-122357485D01*
X120853305Y-122437213D01*
X120692533Y-122554021D01*
X120552021Y-122694533D01*
X120435213Y-122855305D01*
X120344994Y-123032367D01*
X120344993Y-123032370D01*
X120283587Y-123221362D01*
X120252500Y-123417639D01*
X120252500Y-123616360D01*
X120283587Y-123812637D01*
X120344993Y-124001629D01*
X120344994Y-124001632D01*
X120435213Y-124178694D01*
X120552019Y-124339464D01*
X120692536Y-124479981D01*
X120853306Y-124596787D01*
X120902589Y-124621898D01*
X121030367Y-124687005D01*
X121030370Y-124687006D01*
X121124866Y-124717709D01*
X121219364Y-124748413D01*
X121415639Y-124779500D01*
X121415640Y-124779500D01*
X121614360Y-124779500D01*
X121614361Y-124779500D01*
X121810636Y-124748413D01*
X121999632Y-124687005D01*
X122176694Y-124596787D01*
X122337464Y-124479981D01*
X122477981Y-124339464D01*
X122594787Y-124178694D01*
X122685005Y-124001632D01*
X122746413Y-123812636D01*
X122777500Y-123616361D01*
X122777500Y-123417639D01*
X122746413Y-123221364D01*
X122696417Y-123067490D01*
X122685006Y-123032370D01*
X122685005Y-123032367D01*
X122594786Y-122855305D01*
X122477981Y-122694536D01*
X122337464Y-122554019D01*
X122176694Y-122437213D01*
X122020218Y-122357484D01*
X121969423Y-122309510D01*
X121952628Y-122241689D01*
X121975165Y-122175554D01*
X122020218Y-122136515D01*
X122176694Y-122056787D01*
X122337464Y-121939981D01*
X122477981Y-121799464D01*
X122594787Y-121638694D01*
X122685005Y-121461632D01*
X122746413Y-121272636D01*
X122777500Y-121076361D01*
X122777500Y-120877639D01*
X122746413Y-120681364D01*
X122694385Y-120521237D01*
X122685006Y-120492370D01*
X122685005Y-120492367D01*
X122594786Y-120315305D01*
X122477981Y-120154536D01*
X122337464Y-120014019D01*
X122176694Y-119897213D01*
X122020218Y-119817484D01*
X121969423Y-119769510D01*
X121952628Y-119701689D01*
X121975165Y-119635554D01*
X122020218Y-119596515D01*
X122176694Y-119516787D01*
X122337464Y-119399981D01*
X122477981Y-119259464D01*
X122594787Y-119098694D01*
X122685005Y-118921632D01*
X122746413Y-118732636D01*
X122777500Y-118536361D01*
X122777500Y-118337639D01*
X122746413Y-118141364D01*
X122696417Y-117987490D01*
X122685006Y-117952370D01*
X122685005Y-117952367D01*
X122615038Y-117815051D01*
X122594787Y-117775306D01*
X122477981Y-117614536D01*
X122337464Y-117474019D01*
X122176694Y-117357213D01*
X122020218Y-117277484D01*
X121969423Y-117229510D01*
X121952628Y-117161689D01*
X121975165Y-117095554D01*
X122020218Y-117056515D01*
X122176694Y-116976787D01*
X122337464Y-116859981D01*
X122477981Y-116719464D01*
X122594787Y-116558694D01*
X122685005Y-116381632D01*
X122746413Y-116192636D01*
X122777500Y-115996361D01*
X122777500Y-115797639D01*
X122746413Y-115601364D01*
X122704190Y-115471413D01*
X122685006Y-115412370D01*
X122685005Y-115412367D01*
X122609500Y-115264182D01*
X122594787Y-115235306D01*
X122477981Y-115074536D01*
X122337464Y-114934019D01*
X122176694Y-114817213D01*
X122020218Y-114737484D01*
X121969423Y-114689510D01*
X121952628Y-114621689D01*
X121975165Y-114555554D01*
X122020218Y-114516515D01*
X122176694Y-114436787D01*
X122337464Y-114319981D01*
X122477981Y-114179464D01*
X122594787Y-114018694D01*
X122685005Y-113841632D01*
X122746413Y-113652636D01*
X122777500Y-113456361D01*
X122777500Y-113257639D01*
X122746413Y-113061364D01*
X122696417Y-112907490D01*
X122685006Y-112872370D01*
X122685005Y-112872367D01*
X122609500Y-112724182D01*
X122594787Y-112695306D01*
X122477981Y-112534536D01*
X122337464Y-112394019D01*
X122176694Y-112277213D01*
X122020218Y-112197484D01*
X121969423Y-112149510D01*
X121952628Y-112081689D01*
X121975165Y-112015554D01*
X122020218Y-111976515D01*
X122176694Y-111896787D01*
X122337464Y-111779981D01*
X122477981Y-111639464D01*
X122594787Y-111478694D01*
X122685005Y-111301632D01*
X122746413Y-111112636D01*
X122777500Y-110916361D01*
X122777500Y-110717639D01*
X122746413Y-110521364D01*
X122714290Y-110422500D01*
X122685006Y-110332370D01*
X122685005Y-110332367D01*
X122615038Y-110195051D01*
X122594787Y-110155306D01*
X122477981Y-109994536D01*
X122337464Y-109854019D01*
X122176694Y-109737213D01*
X122019667Y-109657203D01*
X121968872Y-109609229D01*
X121952077Y-109541408D01*
X121974614Y-109475273D01*
X122019669Y-109436234D01*
X122176422Y-109356364D01*
X122213716Y-109329268D01*
X121542448Y-108658000D01*
X121565160Y-108658000D01*
X121662061Y-108632036D01*
X121748940Y-108581876D01*
X121819876Y-108510940D01*
X121870036Y-108424061D01*
X121896000Y-108327160D01*
X121896000Y-108304446D01*
X122567268Y-108975715D01*
G37*
%TD.AperFunction*%
%TA.AperFunction,Conductor*%
G36*
X85922732Y-110060185D02*
G01*
X85943374Y-110076819D01*
X85989536Y-110122981D01*
X86150306Y-110239787D01*
X86228082Y-110279416D01*
X86306780Y-110319515D01*
X86357576Y-110367490D01*
X86374371Y-110435311D01*
X86351833Y-110501446D01*
X86306780Y-110540485D01*
X86150305Y-110620213D01*
X86101900Y-110655381D01*
X86073771Y-110675818D01*
X86007967Y-110699298D01*
X86000887Y-110699500D01*
X84901454Y-110699500D01*
X84869391Y-110705876D01*
X84869392Y-110705877D01*
X84708170Y-110737946D01*
X84708164Y-110737948D01*
X84617125Y-110775658D01*
X84526084Y-110813368D01*
X84526083Y-110813368D01*
X84403045Y-110895579D01*
X84403046Y-110895580D01*
X84362218Y-110922859D01*
X78990756Y-116294321D01*
X78929433Y-116327806D01*
X78859741Y-116322822D01*
X78803808Y-116280950D01*
X78785144Y-116244958D01*
X78751557Y-116141588D01*
X78655051Y-115952184D01*
X78655049Y-115952181D01*
X78655048Y-115952179D01*
X78530109Y-115780213D01*
X78416181Y-115666285D01*
X78382696Y-115604962D01*
X78387680Y-115535270D01*
X78429552Y-115479337D01*
X78460529Y-115462422D01*
X78592086Y-115413354D01*
X78592093Y-115413350D01*
X78707187Y-115327190D01*
X78707190Y-115327187D01*
X78793350Y-115212093D01*
X78793354Y-115212086D01*
X78843596Y-115077379D01*
X78843598Y-115077372D01*
X78849999Y-115017844D01*
X78850000Y-115017827D01*
X78850000Y-114370000D01*
X77933012Y-114370000D01*
X77965925Y-114312993D01*
X78000000Y-114185826D01*
X78000000Y-114054174D01*
X77965925Y-113927007D01*
X77933012Y-113870000D01*
X78850000Y-113870000D01*
X78850000Y-113222172D01*
X78849999Y-113222155D01*
X78843598Y-113162627D01*
X78843596Y-113162620D01*
X78793354Y-113027913D01*
X78793352Y-113027910D01*
X78716110Y-112924729D01*
X78691692Y-112859265D01*
X78706543Y-112790992D01*
X78716105Y-112776111D01*
X78793796Y-112672331D01*
X78844091Y-112537483D01*
X78850500Y-112477873D01*
X78850499Y-110682128D01*
X78844091Y-110622517D01*
X78823676Y-110567782D01*
X78793797Y-110487671D01*
X78793793Y-110487664D01*
X78707547Y-110372455D01*
X78707544Y-110372452D01*
X78592335Y-110286206D01*
X78592328Y-110286202D01*
X78577527Y-110280682D01*
X78521593Y-110238811D01*
X78497176Y-110173346D01*
X78512028Y-110105073D01*
X78561433Y-110055668D01*
X78620860Y-110040500D01*
X85855693Y-110040500D01*
X85922732Y-110060185D01*
G37*
%TD.AperFunction*%
%TA.AperFunction,Conductor*%
G36*
X125601257Y-73520185D02*
G01*
X125621899Y-73536819D01*
X127963181Y-75878101D01*
X127996666Y-75939424D01*
X127999500Y-75965782D01*
X127999500Y-87034217D01*
X127979815Y-87101256D01*
X127963181Y-87121898D01*
X120877220Y-94207859D01*
X120877218Y-94207861D01*
X120807538Y-94277540D01*
X120737859Y-94347219D01*
X120628371Y-94511079D01*
X120628364Y-94511092D01*
X120552950Y-94693160D01*
X120552947Y-94693170D01*
X120514500Y-94886456D01*
X120514500Y-104925886D01*
X120494815Y-104992925D01*
X120490818Y-104998771D01*
X120435215Y-105075302D01*
X120344994Y-105252367D01*
X120344993Y-105252370D01*
X120283587Y-105441362D01*
X120252500Y-105637639D01*
X120252500Y-105836360D01*
X120283587Y-106032637D01*
X120344993Y-106221629D01*
X120344994Y-106221632D01*
X120435213Y-106398694D01*
X120552019Y-106559464D01*
X120692536Y-106699981D01*
X120853306Y-106816787D01*
X121010332Y-106896796D01*
X121061127Y-106944769D01*
X121077922Y-107012590D01*
X121055385Y-107078725D01*
X121010332Y-107117764D01*
X120853566Y-107197641D01*
X120816283Y-107224729D01*
X120816282Y-107224730D01*
X121487554Y-107896000D01*
X121464840Y-107896000D01*
X121367939Y-107921964D01*
X121281060Y-107972124D01*
X121210124Y-108043060D01*
X121159964Y-108129939D01*
X121134000Y-108226840D01*
X121134000Y-108249552D01*
X120462730Y-107578282D01*
X120462729Y-107578283D01*
X120435643Y-107615564D01*
X120345457Y-107792562D01*
X120284075Y-107981476D01*
X120284075Y-107981479D01*
X120253000Y-108177678D01*
X120253000Y-108376321D01*
X120284075Y-108572520D01*
X120284075Y-108572523D01*
X120345457Y-108761437D01*
X120435641Y-108938432D01*
X120462730Y-108975715D01*
X120462731Y-108975716D01*
X121134000Y-108304447D01*
X121134000Y-108327160D01*
X121159964Y-108424061D01*
X121210124Y-108510940D01*
X121281060Y-108581876D01*
X121367939Y-108632036D01*
X121464840Y-108658000D01*
X121487553Y-108658000D01*
X120816283Y-109329268D01*
X120816283Y-109329269D01*
X120853567Y-109356358D01*
X121010331Y-109436234D01*
X121061127Y-109484209D01*
X121077922Y-109552030D01*
X121055384Y-109618165D01*
X121010331Y-109657204D01*
X120853305Y-109737213D01*
X120804900Y-109772381D01*
X120776771Y-109792818D01*
X120710967Y-109816298D01*
X120703887Y-109816500D01*
X117282783Y-109816500D01*
X117215744Y-109796815D01*
X117195102Y-109780181D01*
X116536819Y-109121898D01*
X116503334Y-109060575D01*
X116500500Y-109034217D01*
X116500500Y-104541456D01*
X116467605Y-104376087D01*
X116467605Y-104376086D01*
X116462051Y-104348164D01*
X116439961Y-104294834D01*
X116407539Y-104216559D01*
X116386635Y-104166092D01*
X116386628Y-104166079D01*
X116277139Y-104002218D01*
X116277136Y-104002214D01*
X116134686Y-103859764D01*
X116134655Y-103859735D01*
X113886819Y-101611899D01*
X113853334Y-101550576D01*
X113850500Y-101524218D01*
X113850500Y-101440639D01*
X113819413Y-101244364D01*
X113758005Y-101055368D01*
X113758005Y-101055367D01*
X113667786Y-100878305D01*
X113550981Y-100717536D01*
X113410464Y-100577019D01*
X113249694Y-100460213D01*
X113093218Y-100380484D01*
X113042423Y-100332510D01*
X113025628Y-100264689D01*
X113048165Y-100198554D01*
X113093218Y-100159515D01*
X113249694Y-100079787D01*
X113410464Y-99962981D01*
X113550981Y-99822464D01*
X113667787Y-99661694D01*
X113758005Y-99484632D01*
X113819413Y-99295636D01*
X113850500Y-99099361D01*
X113850500Y-99015782D01*
X113870185Y-98948743D01*
X113886819Y-98928101D01*
X120248537Y-92566384D01*
X126627139Y-86187782D01*
X126736631Y-86023915D01*
X126736632Y-86023914D01*
X126786510Y-85903498D01*
X126812051Y-85841836D01*
X126834445Y-85729257D01*
X126850499Y-85648545D01*
X126850500Y-85648543D01*
X126850500Y-76218003D01*
X126812052Y-76024717D01*
X126812051Y-76024716D01*
X126812051Y-76024712D01*
X126790172Y-75971891D01*
X126736635Y-75842639D01*
X126736628Y-75842626D01*
X126627139Y-75678765D01*
X126627136Y-75678761D01*
X126484686Y-75536311D01*
X126484655Y-75536282D01*
X125664932Y-74716559D01*
X125664912Y-74716537D01*
X125521238Y-74572863D01*
X125521234Y-74572860D01*
X125357369Y-74463369D01*
X125357360Y-74463364D01*
X125207908Y-74401460D01*
X125207907Y-74401460D01*
X125175289Y-74387949D01*
X125175281Y-74387947D01*
X125078641Y-74368724D01*
X124981997Y-74349500D01*
X124981994Y-74349500D01*
X120868540Y-74349500D01*
X120671459Y-74349500D01*
X120671456Y-74349500D01*
X120478171Y-74387947D01*
X120478163Y-74387949D01*
X120445546Y-74401460D01*
X120296083Y-74463369D01*
X120132222Y-74572857D01*
X120132214Y-74572863D01*
X119091503Y-75613576D01*
X119030180Y-75647061D01*
X119014643Y-75649352D01*
X118803760Y-75682753D01*
X118601585Y-75748444D01*
X118412179Y-75844951D01*
X118236266Y-75972759D01*
X118235635Y-75971891D01*
X118176581Y-75998359D01*
X118159800Y-75999500D01*
X117540200Y-75999500D01*
X117473161Y-75979815D01*
X117460634Y-75970506D01*
X117287820Y-75844951D01*
X117098414Y-75748444D01*
X117098413Y-75748443D01*
X117098412Y-75748443D01*
X116896243Y-75682754D01*
X116896241Y-75682753D01*
X116896240Y-75682753D01*
X116734957Y-75657208D01*
X116686287Y-75649500D01*
X116473713Y-75649500D01*
X116425042Y-75657208D01*
X116263760Y-75682753D01*
X116061585Y-75748444D01*
X115872179Y-75844951D01*
X115700213Y-75969890D01*
X115549890Y-76120213D01*
X115424949Y-76292182D01*
X115420202Y-76301499D01*
X115372227Y-76352293D01*
X115304405Y-76369087D01*
X115238271Y-76346548D01*
X115199234Y-76301495D01*
X115194626Y-76292452D01*
X115155270Y-76238282D01*
X115155269Y-76238282D01*
X114522962Y-76870590D01*
X114505925Y-76807007D01*
X114440099Y-76692993D01*
X114347007Y-76599901D01*
X114232993Y-76534075D01*
X114169408Y-76517037D01*
X114801716Y-75884728D01*
X114747550Y-75845375D01*
X114558217Y-75748904D01*
X114454642Y-75715251D01*
X114396967Y-75675814D01*
X114369768Y-75611455D01*
X114381682Y-75542609D01*
X114405275Y-75509644D01*
X116378101Y-73536819D01*
X116439424Y-73503334D01*
X116465782Y-73500500D01*
X125534218Y-73500500D01*
X125601257Y-73520185D01*
G37*
%TD.AperFunction*%
%TA.AperFunction,Conductor*%
G36*
X113574075Y-77192993D02*
G01*
X113639901Y-77307007D01*
X113732993Y-77400099D01*
X113847007Y-77465925D01*
X113910590Y-77482962D01*
X113278282Y-78115269D01*
X113278282Y-78115270D01*
X113332449Y-78154624D01*
X113521782Y-78251095D01*
X113723870Y-78316757D01*
X113933754Y-78350000D01*
X114146246Y-78350000D01*
X114356127Y-78316757D01*
X114356130Y-78316757D01*
X114558217Y-78251095D01*
X114747554Y-78154622D01*
X114801716Y-78115270D01*
X114801717Y-78115270D01*
X114169408Y-77482962D01*
X114232993Y-77465925D01*
X114347007Y-77400099D01*
X114440099Y-77307007D01*
X114505925Y-77192993D01*
X114522962Y-77129409D01*
X115155270Y-77761717D01*
X115155270Y-77761716D01*
X115194622Y-77707555D01*
X115199232Y-77698507D01*
X115247205Y-77647709D01*
X115315025Y-77630912D01*
X115381161Y-77653447D01*
X115420204Y-77698504D01*
X115424949Y-77707817D01*
X115552759Y-77883734D01*
X115550882Y-77885097D01*
X115575587Y-77940071D01*
X115565224Y-78009168D01*
X115540425Y-78044654D01*
X113621899Y-79963181D01*
X113560576Y-79996666D01*
X113534218Y-79999500D01*
X85965782Y-79999500D01*
X85898743Y-79979815D01*
X85878101Y-79963181D01*
X83959574Y-78044654D01*
X83926089Y-77983331D01*
X83931073Y-77913639D01*
X83948280Y-77884489D01*
X83947241Y-77883734D01*
X84075048Y-77707820D01*
X84075051Y-77707816D01*
X84079793Y-77698508D01*
X84127763Y-77647711D01*
X84195583Y-77630911D01*
X84261719Y-77653445D01*
X84300763Y-77698500D01*
X84305373Y-77707547D01*
X84344728Y-77761716D01*
X84977037Y-77129408D01*
X84994075Y-77192993D01*
X85059901Y-77307007D01*
X85152993Y-77400099D01*
X85267007Y-77465925D01*
X85330590Y-77482962D01*
X84698282Y-78115269D01*
X84698282Y-78115270D01*
X84752449Y-78154624D01*
X84941782Y-78251095D01*
X85143870Y-78316757D01*
X85353754Y-78350000D01*
X85566246Y-78350000D01*
X85776127Y-78316757D01*
X85776130Y-78316757D01*
X85978217Y-78251095D01*
X86167554Y-78154622D01*
X86221716Y-78115270D01*
X86221717Y-78115270D01*
X85589408Y-77482962D01*
X85652993Y-77465925D01*
X85767007Y-77400099D01*
X85860099Y-77307007D01*
X85925925Y-77192993D01*
X85942962Y-77129408D01*
X86613181Y-77799628D01*
X86646666Y-77860951D01*
X86649500Y-77887300D01*
X86649500Y-77897865D01*
X86649501Y-77897876D01*
X86655908Y-77957483D01*
X86706202Y-78092328D01*
X86706206Y-78092335D01*
X86792452Y-78207544D01*
X86792455Y-78207547D01*
X86907664Y-78293793D01*
X86907671Y-78293797D01*
X87042517Y-78344091D01*
X87042516Y-78344091D01*
X87049444Y-78344835D01*
X87102127Y-78350500D01*
X88897872Y-78350499D01*
X88957483Y-78344091D01*
X89092331Y-78293796D01*
X89207546Y-78207546D01*
X89293796Y-78092331D01*
X89297960Y-78081165D01*
X89339829Y-78025234D01*
X89405293Y-78000816D01*
X89414141Y-78000500D01*
X110085859Y-78000500D01*
X110152898Y-78020185D01*
X110198653Y-78072989D01*
X110202030Y-78081140D01*
X110206204Y-78092331D01*
X110206205Y-78092332D01*
X110206206Y-78092335D01*
X110292452Y-78207544D01*
X110292455Y-78207547D01*
X110407664Y-78293793D01*
X110407671Y-78293797D01*
X110542517Y-78344091D01*
X110542516Y-78344091D01*
X110549444Y-78344835D01*
X110602127Y-78350500D01*
X112397872Y-78350499D01*
X112457483Y-78344091D01*
X112592331Y-78293796D01*
X112707546Y-78207546D01*
X112793796Y-78092331D01*
X112844091Y-77957483D01*
X112850500Y-77897873D01*
X112850499Y-77873979D01*
X112853330Y-77860963D01*
X112863940Y-77841525D01*
X112870179Y-77820275D01*
X112886803Y-77799643D01*
X112886808Y-77799636D01*
X112886811Y-77799634D01*
X112886818Y-77799626D01*
X113557037Y-77129408D01*
X113574075Y-77192993D01*
G37*
%TD.AperFunction*%
%TA.AperFunction,Conductor*%
G36*
X84990427Y-75520185D02*
G01*
X85036182Y-75572989D01*
X85046126Y-75642147D01*
X85017101Y-75705703D01*
X84961706Y-75742431D01*
X84941782Y-75748904D01*
X84752439Y-75845380D01*
X84698282Y-75884727D01*
X84698282Y-75884728D01*
X85330591Y-76517037D01*
X85267007Y-76534075D01*
X85152993Y-76599901D01*
X85059901Y-76692993D01*
X84994075Y-76807007D01*
X84977037Y-76870591D01*
X84344728Y-76238282D01*
X84344727Y-76238282D01*
X84305380Y-76292440D01*
X84305376Y-76292446D01*
X84300760Y-76301505D01*
X84252781Y-76352297D01*
X84184959Y-76369087D01*
X84118826Y-76346543D01*
X84079794Y-76301493D01*
X84075051Y-76292184D01*
X84075049Y-76292181D01*
X84075048Y-76292179D01*
X83950109Y-76120213D01*
X83799786Y-75969890D01*
X83627820Y-75844951D01*
X83438414Y-75748444D01*
X83438413Y-75748443D01*
X83438412Y-75748443D01*
X83419907Y-75742430D01*
X83362232Y-75702994D01*
X83335034Y-75638635D01*
X83346949Y-75569789D01*
X83394193Y-75518313D01*
X83458226Y-75500500D01*
X84923388Y-75500500D01*
X84990427Y-75520185D01*
G37*
%TD.AperFunction*%
%TA.AperFunction,Conductor*%
G36*
X155942539Y-55020185D02*
G01*
X155988294Y-55072989D01*
X155999500Y-55124500D01*
X155999500Y-165875500D01*
X155979815Y-165942539D01*
X155927011Y-165988294D01*
X155875500Y-165999500D01*
X42124500Y-165999500D01*
X42057461Y-165979815D01*
X42011706Y-165927011D01*
X42000500Y-165875500D01*
X42000500Y-162378711D01*
X44649500Y-162378711D01*
X44649500Y-162621288D01*
X44681161Y-162861785D01*
X44743947Y-163096104D01*
X44836773Y-163320205D01*
X44836776Y-163320212D01*
X44958064Y-163530289D01*
X44958066Y-163530292D01*
X44958067Y-163530293D01*
X45105733Y-163722736D01*
X45105739Y-163722743D01*
X45277256Y-163894260D01*
X45277262Y-163894265D01*
X45469711Y-164041936D01*
X45679788Y-164163224D01*
X45903900Y-164256054D01*
X46138211Y-164318838D01*
X46318586Y-164342584D01*
X46378711Y-164350500D01*
X46378712Y-164350500D01*
X46621289Y-164350500D01*
X46669388Y-164344167D01*
X46861789Y-164318838D01*
X47096100Y-164256054D01*
X47320212Y-164163224D01*
X47530289Y-164041936D01*
X47722738Y-163894265D01*
X47894265Y-163722738D01*
X48041936Y-163530289D01*
X48163224Y-163320212D01*
X48256054Y-163096100D01*
X48318838Y-162861789D01*
X48350500Y-162621288D01*
X48350500Y-162378712D01*
X48350500Y-162378711D01*
X149649500Y-162378711D01*
X149649500Y-162621288D01*
X149681161Y-162861785D01*
X149743947Y-163096104D01*
X149836773Y-163320205D01*
X149836776Y-163320212D01*
X149958064Y-163530289D01*
X149958066Y-163530292D01*
X149958067Y-163530293D01*
X150105733Y-163722736D01*
X150105739Y-163722743D01*
X150277256Y-163894260D01*
X150277262Y-163894265D01*
X150469711Y-164041936D01*
X150679788Y-164163224D01*
X150903900Y-164256054D01*
X151138211Y-164318838D01*
X151318586Y-164342584D01*
X151378711Y-164350500D01*
X151378712Y-164350500D01*
X151621289Y-164350500D01*
X151669388Y-164344167D01*
X151861789Y-164318838D01*
X152096100Y-164256054D01*
X152320212Y-164163224D01*
X152530289Y-164041936D01*
X152722738Y-163894265D01*
X152894265Y-163722738D01*
X153041936Y-163530289D01*
X153163224Y-163320212D01*
X153256054Y-163096100D01*
X153318838Y-162861789D01*
X153350500Y-162621288D01*
X153350500Y-162378712D01*
X153318838Y-162138211D01*
X153256054Y-161903900D01*
X153163224Y-161679788D01*
X153041936Y-161469711D01*
X152894265Y-161277262D01*
X152894260Y-161277256D01*
X152722743Y-161105739D01*
X152722736Y-161105733D01*
X152530293Y-160958067D01*
X152530292Y-160958066D01*
X152530289Y-160958064D01*
X152320212Y-160836776D01*
X152320205Y-160836773D01*
X152096104Y-160743947D01*
X151861785Y-160681161D01*
X151621289Y-160649500D01*
X151621288Y-160649500D01*
X151378712Y-160649500D01*
X151378711Y-160649500D01*
X151138214Y-160681161D01*
X150903895Y-160743947D01*
X150679794Y-160836773D01*
X150679785Y-160836777D01*
X150469706Y-160958067D01*
X150277263Y-161105733D01*
X150277256Y-161105739D01*
X150105739Y-161277256D01*
X150105733Y-161277263D01*
X149958067Y-161469706D01*
X149836777Y-161679785D01*
X149836773Y-161679794D01*
X149743947Y-161903895D01*
X149681161Y-162138214D01*
X149649500Y-162378711D01*
X48350500Y-162378711D01*
X48318838Y-162138211D01*
X48256054Y-161903900D01*
X48163224Y-161679788D01*
X48041936Y-161469711D01*
X47894265Y-161277262D01*
X47894260Y-161277256D01*
X47722743Y-161105739D01*
X47722736Y-161105733D01*
X47530293Y-160958067D01*
X47530292Y-160958066D01*
X47530289Y-160958064D01*
X47320212Y-160836776D01*
X47320205Y-160836773D01*
X47096104Y-160743947D01*
X46861785Y-160681161D01*
X46621289Y-160649500D01*
X46621288Y-160649500D01*
X46378712Y-160649500D01*
X46378711Y-160649500D01*
X46138214Y-160681161D01*
X45903895Y-160743947D01*
X45679794Y-160836773D01*
X45679785Y-160836777D01*
X45469706Y-160958067D01*
X45277263Y-161105733D01*
X45277256Y-161105739D01*
X45105739Y-161277256D01*
X45105733Y-161277263D01*
X44958067Y-161469706D01*
X44836777Y-161679785D01*
X44836773Y-161679794D01*
X44743947Y-161903895D01*
X44681161Y-162138214D01*
X44649500Y-162378711D01*
X42000500Y-162378711D01*
X42000500Y-142598543D01*
X62999499Y-142598543D01*
X63037947Y-142791829D01*
X63037950Y-142791839D01*
X63113364Y-142973907D01*
X63113371Y-142973920D01*
X63222859Y-143137780D01*
X63222860Y-143137781D01*
X63222861Y-143137782D01*
X63362218Y-143277139D01*
X63362219Y-143277139D01*
X63369286Y-143284206D01*
X63369285Y-143284206D01*
X63369289Y-143284209D01*
X66463181Y-146378101D01*
X66496666Y-146439424D01*
X66499500Y-146465782D01*
X66499500Y-148085858D01*
X66479815Y-148152897D01*
X66427011Y-148198652D01*
X66418847Y-148202034D01*
X66407669Y-148206204D01*
X66407664Y-148206206D01*
X66292455Y-148292452D01*
X66292452Y-148292455D01*
X66206206Y-148407664D01*
X66206202Y-148407671D01*
X66155908Y-148542517D01*
X66149501Y-148602116D01*
X66149500Y-148602135D01*
X66149500Y-150397870D01*
X66149501Y-150397876D01*
X66155908Y-150457483D01*
X66206202Y-150592328D01*
X66206206Y-150592335D01*
X66292452Y-150707544D01*
X66292455Y-150707547D01*
X66407664Y-150793793D01*
X66407671Y-150793797D01*
X66542517Y-150844091D01*
X66542516Y-150844091D01*
X66549444Y-150844835D01*
X66602127Y-150850500D01*
X67384217Y-150850499D01*
X67451256Y-150870183D01*
X67471898Y-150886818D01*
X69669735Y-153084655D01*
X69669764Y-153084686D01*
X69812214Y-153227136D01*
X69812218Y-153227139D01*
X69976079Y-153336628D01*
X69976092Y-153336635D01*
X70104833Y-153389961D01*
X70147744Y-153407735D01*
X70158164Y-153412051D01*
X70254812Y-153431275D01*
X70303135Y-153440887D01*
X70351458Y-153450500D01*
X70351459Y-153450500D01*
X124148542Y-153450500D01*
X124167870Y-153446655D01*
X124245188Y-153431275D01*
X124341836Y-153412051D01*
X124395165Y-153389961D01*
X124523914Y-153336632D01*
X124687782Y-153227139D01*
X124827139Y-153087782D01*
X124827140Y-153087779D01*
X124834206Y-153080714D01*
X124834209Y-153080710D01*
X127028101Y-150886818D01*
X127089424Y-150853333D01*
X127115782Y-150850499D01*
X127897871Y-150850499D01*
X127897872Y-150850499D01*
X127957483Y-150844091D01*
X128092331Y-150793796D01*
X128207546Y-150707546D01*
X128293796Y-150592331D01*
X128344091Y-150457483D01*
X128350500Y-150397873D01*
X128350499Y-150373979D01*
X128353330Y-150360963D01*
X128363940Y-150341525D01*
X128370179Y-150320275D01*
X128386803Y-150299643D01*
X128386808Y-150299636D01*
X128386811Y-150299634D01*
X128386818Y-150299626D01*
X129057036Y-149629407D01*
X129074075Y-149692993D01*
X129139901Y-149807007D01*
X129232993Y-149900099D01*
X129347007Y-149965925D01*
X129410590Y-149982962D01*
X128778282Y-150615269D01*
X128778282Y-150615270D01*
X128832449Y-150654624D01*
X129021782Y-150751095D01*
X129223870Y-150816757D01*
X129433754Y-150850000D01*
X129646246Y-150850000D01*
X129856127Y-150816757D01*
X129856130Y-150816757D01*
X130058217Y-150751095D01*
X130247554Y-150654622D01*
X130301716Y-150615270D01*
X130301717Y-150615270D01*
X129669408Y-149982962D01*
X129732993Y-149965925D01*
X129847007Y-149900099D01*
X129940099Y-149807007D01*
X130005925Y-149692993D01*
X130022962Y-149629409D01*
X130655270Y-150261717D01*
X130655270Y-150261716D01*
X130694622Y-150207555D01*
X130699232Y-150198507D01*
X130747205Y-150147709D01*
X130815025Y-150130912D01*
X130881161Y-150153447D01*
X130920204Y-150198504D01*
X130924949Y-150207817D01*
X131049890Y-150379786D01*
X131200213Y-150530109D01*
X131372179Y-150655048D01*
X131372181Y-150655049D01*
X131372184Y-150655051D01*
X131561588Y-150751557D01*
X131763757Y-150817246D01*
X131973713Y-150850500D01*
X131973714Y-150850500D01*
X132186286Y-150850500D01*
X132186287Y-150850500D01*
X132396243Y-150817246D01*
X132598412Y-150751557D01*
X132787816Y-150655051D01*
X132874138Y-150592335D01*
X132959786Y-150530109D01*
X132959788Y-150530106D01*
X132959792Y-150530104D01*
X133110104Y-150379792D01*
X133110106Y-150379788D01*
X133110109Y-150379786D01*
X133235048Y-150207820D01*
X133235050Y-150207817D01*
X133235051Y-150207816D01*
X133239514Y-150199054D01*
X133287488Y-150148259D01*
X133355308Y-150131463D01*
X133421444Y-150153999D01*
X133460486Y-150199056D01*
X133464951Y-150207820D01*
X133589890Y-150379786D01*
X133740213Y-150530109D01*
X133912179Y-150655048D01*
X133912181Y-150655049D01*
X133912184Y-150655051D01*
X134101588Y-150751557D01*
X134303757Y-150817246D01*
X134513713Y-150850500D01*
X134513714Y-150850500D01*
X134726286Y-150850500D01*
X134726287Y-150850500D01*
X134936243Y-150817246D01*
X135138412Y-150751557D01*
X135327816Y-150655051D01*
X135414138Y-150592335D01*
X135499786Y-150530109D01*
X135499788Y-150530106D01*
X135499792Y-150530104D01*
X135650104Y-150379792D01*
X135650106Y-150379788D01*
X135650109Y-150379786D01*
X135775048Y-150207820D01*
X135775050Y-150207817D01*
X135775051Y-150207816D01*
X135871557Y-150018412D01*
X135937246Y-149816243D01*
X135970500Y-149606287D01*
X135970500Y-149393713D01*
X135937246Y-149183757D01*
X135871557Y-148981588D01*
X135775051Y-148792184D01*
X135775049Y-148792181D01*
X135775048Y-148792179D01*
X135650109Y-148620213D01*
X135499786Y-148469890D01*
X135327820Y-148344951D01*
X135138414Y-148248444D01*
X135138413Y-148248443D01*
X135138412Y-148248443D01*
X134936243Y-148182754D01*
X134936241Y-148182753D01*
X134936240Y-148182753D01*
X134769544Y-148156351D01*
X134726287Y-148149500D01*
X134726286Y-148149500D01*
X134721475Y-148148738D01*
X134721641Y-148147684D01*
X134661150Y-148124621D01*
X134648497Y-148113576D01*
X131404209Y-144869289D01*
X131404206Y-144869285D01*
X131404206Y-144869286D01*
X131397139Y-144862219D01*
X131397139Y-144862218D01*
X131257782Y-144722861D01*
X131257781Y-144722860D01*
X131257780Y-144722859D01*
X131093920Y-144613371D01*
X131093911Y-144613366D01*
X131021315Y-144583296D01*
X130965165Y-144560038D01*
X130911836Y-144537949D01*
X130911832Y-144537948D01*
X130911828Y-144537946D01*
X130815188Y-144518724D01*
X130718544Y-144499500D01*
X130718541Y-144499500D01*
X79465782Y-144499500D01*
X79398743Y-144479815D01*
X79378101Y-144463181D01*
X74463979Y-139549059D01*
X86357040Y-139549059D01*
X86357040Y-139811314D01*
X86377976Y-139970327D01*
X86391270Y-140071303D01*
X86412718Y-140151348D01*
X86459142Y-140324605D01*
X86459145Y-140324615D01*
X86559493Y-140566877D01*
X86559498Y-140566887D01*
X86690615Y-140793990D01*
X86850258Y-141002038D01*
X86850266Y-141002047D01*
X87035680Y-141187461D01*
X87035688Y-141187468D01*
X87243736Y-141347111D01*
X87470839Y-141478228D01*
X87470849Y-141478233D01*
X87713111Y-141578581D01*
X87713121Y-141578585D01*
X87966424Y-141646457D01*
X88226420Y-141680687D01*
X88226427Y-141680687D01*
X88488653Y-141680687D01*
X88488660Y-141680687D01*
X88748656Y-141646457D01*
X89001959Y-141578585D01*
X89244237Y-141478230D01*
X89471343Y-141347111D01*
X89679391Y-141187469D01*
X89679395Y-141187464D01*
X89679400Y-141187461D01*
X89864814Y-141002047D01*
X89864817Y-141002042D01*
X89864822Y-141002038D01*
X90024464Y-140793990D01*
X90155583Y-140566884D01*
X90255938Y-140324606D01*
X90323810Y-140071303D01*
X90358040Y-139811307D01*
X90358040Y-139549067D01*
X90358039Y-139549059D01*
X109357040Y-139549059D01*
X109357040Y-139811314D01*
X109377976Y-139970327D01*
X109391270Y-140071303D01*
X109412718Y-140151348D01*
X109459142Y-140324605D01*
X109459145Y-140324615D01*
X109559493Y-140566877D01*
X109559498Y-140566887D01*
X109690615Y-140793990D01*
X109850258Y-141002038D01*
X109850266Y-141002047D01*
X110035680Y-141187461D01*
X110035688Y-141187468D01*
X110243736Y-141347111D01*
X110470839Y-141478228D01*
X110470849Y-141478233D01*
X110713111Y-141578581D01*
X110713121Y-141578585D01*
X110966424Y-141646457D01*
X111226420Y-141680687D01*
X111226427Y-141680687D01*
X111488653Y-141680687D01*
X111488660Y-141680687D01*
X111748656Y-141646457D01*
X112001959Y-141578585D01*
X112244237Y-141478230D01*
X112471343Y-141347111D01*
X112679391Y-141187469D01*
X112679395Y-141187464D01*
X112679400Y-141187461D01*
X112864814Y-141002047D01*
X112864817Y-141002042D01*
X112864822Y-141002038D01*
X113024464Y-140793990D01*
X113155583Y-140566884D01*
X113255938Y-140324606D01*
X113323810Y-140071303D01*
X113358040Y-139811307D01*
X113358040Y-139549067D01*
X113323810Y-139289071D01*
X113255938Y-139035768D01*
X113157744Y-138798707D01*
X113155586Y-138793496D01*
X113155581Y-138793486D01*
X113024464Y-138566383D01*
X112864821Y-138358335D01*
X112864814Y-138358327D01*
X112679400Y-138172913D01*
X112679391Y-138172905D01*
X112471343Y-138013262D01*
X112244240Y-137882145D01*
X112244230Y-137882140D01*
X112001968Y-137781792D01*
X112001961Y-137781790D01*
X112001959Y-137781789D01*
X111748656Y-137713917D01*
X111690879Y-137706310D01*
X111488667Y-137679687D01*
X111488660Y-137679687D01*
X111226420Y-137679687D01*
X111226412Y-137679687D01*
X110995312Y-137710113D01*
X110966424Y-137713917D01*
X110713121Y-137781789D01*
X110713111Y-137781792D01*
X110470849Y-137882140D01*
X110470839Y-137882145D01*
X110243736Y-138013262D01*
X110035688Y-138172905D01*
X109850258Y-138358335D01*
X109690615Y-138566383D01*
X109559498Y-138793486D01*
X109559493Y-138793496D01*
X109459145Y-139035758D01*
X109459142Y-139035768D01*
X109391270Y-139289072D01*
X109357040Y-139549059D01*
X90358039Y-139549059D01*
X90323810Y-139289071D01*
X90255938Y-139035768D01*
X90157744Y-138798707D01*
X90155586Y-138793496D01*
X90155581Y-138793486D01*
X90024464Y-138566383D01*
X89864821Y-138358335D01*
X89864814Y-138358327D01*
X89679400Y-138172913D01*
X89679391Y-138172905D01*
X89471343Y-138013262D01*
X89244240Y-137882145D01*
X89244230Y-137882140D01*
X89001968Y-137781792D01*
X89001961Y-137781790D01*
X89001959Y-137781789D01*
X88748656Y-137713917D01*
X88690879Y-137706310D01*
X88488667Y-137679687D01*
X88488660Y-137679687D01*
X88226420Y-137679687D01*
X88226412Y-137679687D01*
X87995312Y-137710113D01*
X87966424Y-137713917D01*
X87713121Y-137781789D01*
X87713111Y-137781792D01*
X87470849Y-137882140D01*
X87470839Y-137882145D01*
X87243736Y-138013262D01*
X87035688Y-138172905D01*
X86850258Y-138358335D01*
X86690615Y-138566383D01*
X86559498Y-138793486D01*
X86559493Y-138793496D01*
X86459145Y-139035758D01*
X86459142Y-139035768D01*
X86391270Y-139289072D01*
X86357040Y-139549059D01*
X74463979Y-139549059D01*
X73036819Y-138121899D01*
X73003334Y-138060576D01*
X73000500Y-138034218D01*
X73000500Y-108908003D01*
X72962052Y-108714717D01*
X72962051Y-108714716D01*
X72962051Y-108714712D01*
X72945754Y-108675367D01*
X72886635Y-108532639D01*
X72886628Y-108532626D01*
X72777139Y-108368765D01*
X72777136Y-108368761D01*
X72634686Y-108226311D01*
X72634655Y-108226282D01*
X68624932Y-104216559D01*
X68624912Y-104216537D01*
X68481238Y-104072863D01*
X68481234Y-104072860D01*
X68317373Y-103963371D01*
X68317364Y-103963366D01*
X68244768Y-103933296D01*
X68188618Y-103910038D01*
X68135289Y-103887949D01*
X68135285Y-103887948D01*
X68135281Y-103887946D01*
X68038641Y-103868724D01*
X67941997Y-103849500D01*
X67941994Y-103849500D01*
X66378006Y-103849500D01*
X66378002Y-103849500D01*
X66281359Y-103868724D01*
X66184714Y-103887947D01*
X66184708Y-103887949D01*
X66131381Y-103910037D01*
X66131381Y-103910038D01*
X66085862Y-103928892D01*
X66002636Y-103963366D01*
X66002626Y-103963371D01*
X65838766Y-104072859D01*
X65769087Y-104142538D01*
X65699408Y-104212218D01*
X65422181Y-104489445D01*
X65360858Y-104522930D01*
X65291166Y-104517946D01*
X65235233Y-104476074D01*
X65210816Y-104410610D01*
X65210500Y-104401764D01*
X65210500Y-98255781D01*
X65230185Y-98188742D01*
X65246814Y-98168105D01*
X66528101Y-96886817D01*
X66589424Y-96853333D01*
X66615782Y-96850499D01*
X67397871Y-96850499D01*
X67397872Y-96850499D01*
X67457483Y-96844091D01*
X67592331Y-96793796D01*
X67707546Y-96707546D01*
X67793796Y-96592331D01*
X67844091Y-96457483D01*
X67850500Y-96397873D01*
X67850499Y-94602128D01*
X67844091Y-94542517D01*
X67832370Y-94511092D01*
X67793797Y-94407671D01*
X67793793Y-94407664D01*
X67707547Y-94292455D01*
X67707544Y-94292452D01*
X67592335Y-94206206D01*
X67592328Y-94206202D01*
X67457482Y-94155908D01*
X67457483Y-94155908D01*
X67397883Y-94149501D01*
X67397881Y-94149500D01*
X67397873Y-94149500D01*
X67397865Y-94149500D01*
X67387309Y-94149500D01*
X67320270Y-94129815D01*
X67299628Y-94113181D01*
X66629408Y-93442962D01*
X66692993Y-93425925D01*
X66807007Y-93360099D01*
X66900099Y-93267007D01*
X66965925Y-93152993D01*
X66982962Y-93089409D01*
X67615270Y-93721717D01*
X67615270Y-93721716D01*
X67654622Y-93667554D01*
X67751095Y-93478217D01*
X67816757Y-93276130D01*
X67816757Y-93276127D01*
X67850000Y-93066246D01*
X67850000Y-92853753D01*
X67816757Y-92643872D01*
X67816757Y-92643869D01*
X67751095Y-92441782D01*
X67654624Y-92252449D01*
X67615270Y-92198282D01*
X67615269Y-92198282D01*
X66982962Y-92830590D01*
X66965925Y-92767007D01*
X66900099Y-92652993D01*
X66807007Y-92559901D01*
X66692993Y-92494075D01*
X66629409Y-92477037D01*
X67261716Y-91844728D01*
X67207550Y-91805375D01*
X67018217Y-91708904D01*
X66816129Y-91643242D01*
X66606246Y-91610000D01*
X66393754Y-91610000D01*
X66183872Y-91643242D01*
X66183869Y-91643242D01*
X65981782Y-91708904D01*
X65792439Y-91805380D01*
X65738282Y-91844727D01*
X65738282Y-91844728D01*
X66370591Y-92477037D01*
X66307007Y-92494075D01*
X66192993Y-92559901D01*
X66099901Y-92652993D01*
X66034075Y-92767007D01*
X66017037Y-92830591D01*
X65384728Y-92198282D01*
X65384727Y-92198282D01*
X65345380Y-92252439D01*
X65248904Y-92441782D01*
X65183242Y-92643869D01*
X65183242Y-92643872D01*
X65150000Y-92853753D01*
X65150000Y-93066246D01*
X65183242Y-93276127D01*
X65183242Y-93276130D01*
X65248904Y-93478217D01*
X65345375Y-93667550D01*
X65384728Y-93721716D01*
X66017037Y-93089408D01*
X66034075Y-93152993D01*
X66099901Y-93267007D01*
X66192993Y-93360099D01*
X66307007Y-93425925D01*
X66370590Y-93442962D01*
X65700370Y-94113181D01*
X65639047Y-94146666D01*
X65612698Y-94149500D01*
X65602134Y-94149500D01*
X65602123Y-94149501D01*
X65542516Y-94155908D01*
X65407671Y-94206202D01*
X65407664Y-94206206D01*
X65292455Y-94292452D01*
X65292452Y-94292455D01*
X65206206Y-94407664D01*
X65206202Y-94407671D01*
X65155908Y-94542517D01*
X65153289Y-94566884D01*
X65149501Y-94602123D01*
X65149500Y-94602135D01*
X65149500Y-95384217D01*
X65129815Y-95451256D01*
X65113181Y-95471898D01*
X63572221Y-97012858D01*
X63572218Y-97012861D01*
X63509831Y-97075248D01*
X63432859Y-97152219D01*
X63323371Y-97316080D01*
X63323364Y-97316093D01*
X63308286Y-97352497D01*
X63308286Y-97352498D01*
X63247949Y-97498163D01*
X63247947Y-97498171D01*
X63228724Y-97594812D01*
X63209500Y-97691455D01*
X63209500Y-108728544D01*
X63236090Y-108862220D01*
X63247946Y-108921828D01*
X63247949Y-108921837D01*
X63323364Y-109103907D01*
X63323371Y-109103920D01*
X63432860Y-109267781D01*
X63432862Y-109267784D01*
X63576537Y-109411459D01*
X63576559Y-109411479D01*
X65277398Y-111112318D01*
X65310883Y-111173641D01*
X65305899Y-111243333D01*
X65277397Y-111287680D01*
X63362220Y-113202859D01*
X63362218Y-113202861D01*
X63325781Y-113239298D01*
X63222859Y-113342219D01*
X63113371Y-113506079D01*
X63113364Y-113506092D01*
X63037950Y-113688160D01*
X63037947Y-113688170D01*
X62999500Y-113881456D01*
X62999500Y-113881459D01*
X62999500Y-142598541D01*
X62999500Y-142598543D01*
X62999499Y-142598543D01*
X42000500Y-142598543D01*
X42000500Y-85190019D01*
X72649499Y-85190019D01*
X72687947Y-85383305D01*
X72687950Y-85383315D01*
X72763364Y-85565383D01*
X72763371Y-85565396D01*
X72872860Y-85729257D01*
X72872863Y-85729261D01*
X73016537Y-85872935D01*
X73016559Y-85872955D01*
X74813181Y-87669577D01*
X74846666Y-87730900D01*
X74849500Y-87757258D01*
X74849500Y-110028544D01*
X74868724Y-110125188D01*
X74887947Y-110221830D01*
X74887949Y-110221837D01*
X74895384Y-110239784D01*
X74895386Y-110239790D01*
X74963368Y-110403914D01*
X74963369Y-110403917D01*
X75072859Y-110567780D01*
X75072860Y-110567781D01*
X75072861Y-110567782D01*
X75212218Y-110707139D01*
X75212219Y-110707139D01*
X75219286Y-110714206D01*
X75219285Y-110714206D01*
X75219289Y-110714209D01*
X76113181Y-111608102D01*
X76146666Y-111669425D01*
X76149500Y-111695783D01*
X76149500Y-112477870D01*
X76149501Y-112477876D01*
X76155908Y-112537483D01*
X76206202Y-112672328D01*
X76206206Y-112672335D01*
X76283889Y-112776105D01*
X76308307Y-112841569D01*
X76293456Y-112909842D01*
X76283890Y-112924727D01*
X76206647Y-113027910D01*
X76206645Y-113027913D01*
X76156403Y-113162620D01*
X76156401Y-113162627D01*
X76150000Y-113222155D01*
X76150000Y-113870000D01*
X77066988Y-113870000D01*
X77034075Y-113927007D01*
X77000000Y-114054174D01*
X77000000Y-114185826D01*
X77034075Y-114312993D01*
X77066988Y-114370000D01*
X76150000Y-114370000D01*
X76150000Y-115017844D01*
X76156401Y-115077372D01*
X76156403Y-115077379D01*
X76206645Y-115212086D01*
X76206649Y-115212093D01*
X76292809Y-115327187D01*
X76292812Y-115327190D01*
X76407906Y-115413350D01*
X76407913Y-115413354D01*
X76539470Y-115462422D01*
X76595404Y-115504293D01*
X76619821Y-115569758D01*
X76604969Y-115638031D01*
X76583819Y-115666285D01*
X76469889Y-115780215D01*
X76344951Y-115952179D01*
X76248444Y-116141585D01*
X76182753Y-116343760D01*
X76148738Y-116558525D01*
X76147684Y-116558358D01*
X76124620Y-116618850D01*
X76113576Y-116631502D01*
X75649525Y-117095554D01*
X75212220Y-117532859D01*
X75212218Y-117532861D01*
X75160508Y-117584571D01*
X75072859Y-117672219D01*
X74963371Y-117836080D01*
X74963364Y-117836093D01*
X74916829Y-117948442D01*
X74916829Y-117948443D01*
X74890747Y-118011410D01*
X74887949Y-118018163D01*
X74887946Y-118018173D01*
X74849500Y-118211454D01*
X74849500Y-119981997D01*
X74887947Y-120175282D01*
X74887950Y-120175292D01*
X74903246Y-120212219D01*
X74963364Y-120357359D01*
X74963371Y-120357372D01*
X75072860Y-120521235D01*
X75216537Y-120664912D01*
X75216559Y-120664932D01*
X76186282Y-121634655D01*
X76186311Y-121634686D01*
X76328761Y-121777136D01*
X76328765Y-121777139D01*
X76492626Y-121886628D01*
X76492639Y-121886635D01*
X76621380Y-121939961D01*
X76664291Y-121957735D01*
X76674711Y-121962051D01*
X76771359Y-121981275D01*
X76819682Y-121990887D01*
X76868005Y-122000500D01*
X76868006Y-122000500D01*
X78098542Y-122000500D01*
X78117870Y-121996655D01*
X78195188Y-121981275D01*
X78291836Y-121962051D01*
X78345165Y-121939961D01*
X78473914Y-121886632D01*
X78637782Y-121777139D01*
X78711788Y-121703131D01*
X78730567Y-121687720D01*
X78821235Y-121627139D01*
X78960592Y-121487782D01*
X78960593Y-121487780D01*
X78967659Y-121480714D01*
X78967662Y-121480710D01*
X79787778Y-120660594D01*
X79787782Y-120660592D01*
X79927139Y-120521235D01*
X79987724Y-120430561D01*
X80003136Y-120411782D01*
X85138101Y-115276819D01*
X85199424Y-115243334D01*
X85225782Y-115240500D01*
X86000887Y-115240500D01*
X86067926Y-115260185D01*
X86073763Y-115264175D01*
X86150306Y-115319787D01*
X86236922Y-115363920D01*
X86306780Y-115399515D01*
X86357576Y-115447490D01*
X86374371Y-115515311D01*
X86351833Y-115581446D01*
X86306780Y-115620485D01*
X86150305Y-115700213D01*
X85989533Y-115817021D01*
X85849021Y-115957533D01*
X85732213Y-116118305D01*
X85641994Y-116295367D01*
X85641993Y-116295370D01*
X85580587Y-116484362D01*
X85549500Y-116680639D01*
X85549500Y-116879360D01*
X85580587Y-117075637D01*
X85641993Y-117264629D01*
X85641994Y-117264632D01*
X85694570Y-117367816D01*
X85732213Y-117441694D01*
X85849019Y-117602464D01*
X85989536Y-117742981D01*
X86150306Y-117859787D01*
X86251910Y-117911557D01*
X86306780Y-117939515D01*
X86357576Y-117987490D01*
X86374371Y-118055311D01*
X86351833Y-118121446D01*
X86306780Y-118160485D01*
X86150305Y-118240213D01*
X85989533Y-118357021D01*
X85849021Y-118497533D01*
X85732213Y-118658305D01*
X85641994Y-118835367D01*
X85641993Y-118835370D01*
X85580587Y-119024362D01*
X85549500Y-119220639D01*
X85549500Y-119419360D01*
X85580587Y-119615637D01*
X85641993Y-119804629D01*
X85641994Y-119804632D01*
X85694570Y-119907816D01*
X85732213Y-119981694D01*
X85849019Y-120142464D01*
X85989536Y-120282981D01*
X86150306Y-120399787D01*
X86173838Y-120411777D01*
X86306780Y-120479515D01*
X86357576Y-120527490D01*
X86374371Y-120595311D01*
X86351833Y-120661446D01*
X86306780Y-120700485D01*
X86150305Y-120780213D01*
X85989533Y-120897021D01*
X85849021Y-121037533D01*
X85732213Y-121198305D01*
X85641994Y-121375367D01*
X85641993Y-121375370D01*
X85580587Y-121564362D01*
X85549500Y-121760639D01*
X85549500Y-121959360D01*
X85580587Y-122155637D01*
X85641993Y-122344629D01*
X85641994Y-122344632D01*
X85732213Y-122521694D01*
X85849019Y-122682464D01*
X85989536Y-122822981D01*
X86150306Y-122939787D01*
X86268832Y-123000179D01*
X86306780Y-123019515D01*
X86357576Y-123067490D01*
X86374371Y-123135311D01*
X86351833Y-123201446D01*
X86306780Y-123240485D01*
X86150305Y-123320213D01*
X85989533Y-123437021D01*
X85849021Y-123577533D01*
X85732213Y-123738305D01*
X85641994Y-123915367D01*
X85641993Y-123915370D01*
X85580587Y-124104362D01*
X85549500Y-124300639D01*
X85549500Y-124499360D01*
X85580587Y-124695637D01*
X85641993Y-124884629D01*
X85641994Y-124884632D01*
X85732213Y-125061694D01*
X85849019Y-125222464D01*
X85989536Y-125362981D01*
X86150306Y-125479787D01*
X86268832Y-125540179D01*
X86306780Y-125559515D01*
X86357576Y-125607490D01*
X86374371Y-125675311D01*
X86351833Y-125741446D01*
X86306780Y-125780485D01*
X86150305Y-125860213D01*
X85989533Y-125977021D01*
X85849021Y-126117533D01*
X85732213Y-126278305D01*
X85641994Y-126455367D01*
X85641993Y-126455370D01*
X85580587Y-126644362D01*
X85549500Y-126840639D01*
X85549500Y-127039360D01*
X85580587Y-127235637D01*
X85641993Y-127424629D01*
X85641994Y-127424632D01*
X85732213Y-127601694D01*
X85849019Y-127762464D01*
X85989536Y-127902981D01*
X86150306Y-128019787D01*
X86268832Y-128080179D01*
X86306780Y-128099515D01*
X86357576Y-128147490D01*
X86374371Y-128215311D01*
X86351833Y-128281446D01*
X86306780Y-128320485D01*
X86150305Y-128400213D01*
X86046245Y-128475818D01*
X85980438Y-128499298D01*
X85973359Y-128499500D01*
X79126457Y-128499500D01*
X79067743Y-128511179D01*
X79038386Y-128517019D01*
X78933167Y-128537947D01*
X78933159Y-128537950D01*
X78879834Y-128560037D01*
X78879834Y-128560038D01*
X78834315Y-128578892D01*
X78751089Y-128613366D01*
X78751079Y-128613371D01*
X78587218Y-128722860D01*
X78587214Y-128722863D01*
X78471897Y-128838181D01*
X78410574Y-128871666D01*
X78384216Y-128874500D01*
X77602129Y-128874500D01*
X77602123Y-128874501D01*
X77542516Y-128880908D01*
X77407671Y-128931202D01*
X77407664Y-128931206D01*
X77292455Y-129017452D01*
X77292452Y-129017455D01*
X77206206Y-129132664D01*
X77206202Y-129132671D01*
X77155908Y-129267517D01*
X77149501Y-129327116D01*
X77149500Y-129327135D01*
X77149500Y-131122870D01*
X77149501Y-131122876D01*
X77155908Y-131182483D01*
X77206202Y-131317328D01*
X77206206Y-131317335D01*
X77292452Y-131432544D01*
X77292455Y-131432547D01*
X77407664Y-131518793D01*
X77407671Y-131518797D01*
X77539082Y-131567810D01*
X77595016Y-131609681D01*
X77619433Y-131675145D01*
X77604582Y-131743418D01*
X77583431Y-131771673D01*
X77469889Y-131885215D01*
X77344951Y-132057179D01*
X77248444Y-132246585D01*
X77182753Y-132448760D01*
X77173904Y-132504632D01*
X77149500Y-132658713D01*
X77149500Y-132871287D01*
X77182754Y-133081243D01*
X77230181Y-133227209D01*
X77248444Y-133283414D01*
X77344951Y-133472820D01*
X77469890Y-133644786D01*
X77620213Y-133795109D01*
X77792179Y-133920048D01*
X77792181Y-133920049D01*
X77792184Y-133920051D01*
X77981588Y-134016557D01*
X78183757Y-134082246D01*
X78393713Y-134115500D01*
X78393714Y-134115500D01*
X78398525Y-134116262D01*
X78398357Y-134117321D01*
X78458829Y-134140362D01*
X78471503Y-134151423D01*
X81076735Y-136756655D01*
X81076764Y-136756686D01*
X81219214Y-136899136D01*
X81219218Y-136899139D01*
X81383079Y-137008628D01*
X81383092Y-137008635D01*
X81511833Y-137061961D01*
X81545780Y-137076022D01*
X81565164Y-137084051D01*
X81661812Y-137103275D01*
X81710135Y-137112887D01*
X81758458Y-137122500D01*
X81758459Y-137122500D01*
X90616542Y-137122500D01*
X90635870Y-137118655D01*
X90713188Y-137103275D01*
X90809836Y-137084051D01*
X90863165Y-137061961D01*
X90991914Y-137008632D01*
X91155782Y-136899139D01*
X91295139Y-136759782D01*
X91295140Y-136759779D01*
X91302206Y-136752714D01*
X91302209Y-136752710D01*
X110837185Y-117217733D01*
X110898506Y-117184250D01*
X110968198Y-117189234D01*
X111024131Y-117231106D01*
X111039356Y-117260452D01*
X111040131Y-117260132D01*
X111041994Y-117264632D01*
X111094570Y-117367816D01*
X111132213Y-117441694D01*
X111249019Y-117602464D01*
X111389536Y-117742981D01*
X111550306Y-117859787D01*
X111651910Y-117911557D01*
X111706780Y-117939515D01*
X111757576Y-117987490D01*
X111774371Y-118055311D01*
X111751833Y-118121446D01*
X111706780Y-118160485D01*
X111550305Y-118240213D01*
X111389533Y-118357021D01*
X111249021Y-118497533D01*
X111132213Y-118658305D01*
X111041994Y-118835367D01*
X111041993Y-118835370D01*
X110980587Y-119024362D01*
X110949500Y-119220639D01*
X110949500Y-119419360D01*
X110980587Y-119615637D01*
X111041993Y-119804629D01*
X111041994Y-119804632D01*
X111094570Y-119907816D01*
X111132213Y-119981694D01*
X111249019Y-120142464D01*
X111389536Y-120282981D01*
X111550306Y-120399787D01*
X111573838Y-120411777D01*
X111706780Y-120479515D01*
X111757576Y-120527490D01*
X111774371Y-120595311D01*
X111751833Y-120661446D01*
X111706780Y-120700485D01*
X111550305Y-120780213D01*
X111389533Y-120897021D01*
X111249021Y-121037533D01*
X111132213Y-121198305D01*
X111041994Y-121375367D01*
X111041993Y-121375370D01*
X110980587Y-121564362D01*
X110949500Y-121760639D01*
X110949500Y-121959360D01*
X110980587Y-122155637D01*
X111041993Y-122344629D01*
X111041994Y-122344632D01*
X111132213Y-122521694D01*
X111249019Y-122682464D01*
X111389536Y-122822981D01*
X111550306Y-122939787D01*
X111668832Y-123000179D01*
X111706780Y-123019515D01*
X111757576Y-123067490D01*
X111774371Y-123135311D01*
X111751833Y-123201446D01*
X111706780Y-123240485D01*
X111550305Y-123320213D01*
X111389533Y-123437021D01*
X111249021Y-123577533D01*
X111132213Y-123738305D01*
X111041994Y-123915367D01*
X111041993Y-123915370D01*
X110980587Y-124104362D01*
X110949500Y-124300639D01*
X110949500Y-124499360D01*
X110980587Y-124695637D01*
X111041993Y-124884629D01*
X111041994Y-124884632D01*
X111132213Y-125061694D01*
X111249019Y-125222464D01*
X111389536Y-125362981D01*
X111550306Y-125479787D01*
X111668832Y-125540179D01*
X111706780Y-125559515D01*
X111757576Y-125607490D01*
X111774371Y-125675311D01*
X111751833Y-125741446D01*
X111706780Y-125780485D01*
X111550305Y-125860213D01*
X111389533Y-125977021D01*
X111249021Y-126117533D01*
X111132213Y-126278305D01*
X111041994Y-126455367D01*
X111041993Y-126455370D01*
X110980587Y-126644362D01*
X110949500Y-126840639D01*
X110949500Y-127039360D01*
X110980587Y-127235637D01*
X111041993Y-127424629D01*
X111041994Y-127424632D01*
X111132213Y-127601694D01*
X111249019Y-127762464D01*
X111389536Y-127902981D01*
X111550306Y-128019787D01*
X111668832Y-128080179D01*
X111706780Y-128099515D01*
X111757576Y-128147490D01*
X111774371Y-128215311D01*
X111751833Y-128281446D01*
X111706780Y-128320485D01*
X111550305Y-128400213D01*
X111389533Y-128517021D01*
X111249021Y-128657533D01*
X111132213Y-128818305D01*
X111041994Y-128995367D01*
X111041993Y-128995370D01*
X110980587Y-129184362D01*
X110980587Y-129184364D01*
X110949500Y-129380639D01*
X110949500Y-129579361D01*
X110955858Y-129619501D01*
X110980587Y-129775637D01*
X111041993Y-129964629D01*
X111041994Y-129964632D01*
X111092323Y-130063406D01*
X111132213Y-130141694D01*
X111249019Y-130302464D01*
X111389536Y-130442981D01*
X111550306Y-130559787D01*
X111707332Y-130639796D01*
X111758127Y-130687769D01*
X111774922Y-130755590D01*
X111752385Y-130821725D01*
X111707332Y-130860764D01*
X111550569Y-130940639D01*
X111389860Y-131057403D01*
X111389859Y-131057403D01*
X111249403Y-131197859D01*
X111249403Y-131197860D01*
X111132641Y-131358567D01*
X111042456Y-131535564D01*
X110981074Y-131724482D01*
X110973865Y-131769999D01*
X110973865Y-131770000D01*
X112084314Y-131770000D01*
X112079920Y-131774394D01*
X112027259Y-131865606D01*
X112000000Y-131967339D01*
X112000000Y-132072661D01*
X112027259Y-132174394D01*
X112079920Y-132265606D01*
X112084314Y-132270000D01*
X110973865Y-132270000D01*
X110981074Y-132315517D01*
X111042456Y-132504435D01*
X111132641Y-132681432D01*
X111249403Y-132842139D01*
X111249403Y-132842140D01*
X111389859Y-132982596D01*
X111550567Y-133099358D01*
X111707331Y-133179234D01*
X111758127Y-133227209D01*
X111774922Y-133295030D01*
X111752384Y-133361165D01*
X111707331Y-133400204D01*
X111550305Y-133480213D01*
X111389533Y-133597021D01*
X111249021Y-133737533D01*
X111132213Y-133898305D01*
X111041994Y-134075367D01*
X111041993Y-134075370D01*
X110980587Y-134264362D01*
X110949500Y-134460639D01*
X110949500Y-134659360D01*
X110980587Y-134855637D01*
X111041993Y-135044629D01*
X111041994Y-135044632D01*
X111114824Y-135187567D01*
X111132213Y-135221694D01*
X111249019Y-135382464D01*
X111389536Y-135522981D01*
X111550306Y-135639787D01*
X111637149Y-135684035D01*
X111727367Y-135730005D01*
X111727370Y-135730006D01*
X111821866Y-135760709D01*
X111916364Y-135791413D01*
X112112639Y-135822500D01*
X112112640Y-135822500D01*
X112687360Y-135822500D01*
X112687361Y-135822500D01*
X112883636Y-135791413D01*
X113072632Y-135730005D01*
X113249694Y-135639787D01*
X113326228Y-135584181D01*
X113392033Y-135560702D01*
X113399113Y-135560500D01*
X116038542Y-135560500D01*
X116057870Y-135556655D01*
X116135188Y-135541275D01*
X116231836Y-135522051D01*
X116323170Y-135484219D01*
X116413914Y-135446632D01*
X116483684Y-135400013D01*
X129700000Y-135400013D01*
X129700000Y-136250000D01*
X130899999Y-136250000D01*
X130874979Y-136310402D01*
X130850000Y-136435981D01*
X130850000Y-136564019D01*
X130874979Y-136689598D01*
X130899999Y-136750000D01*
X129700001Y-136750000D01*
X129700001Y-137599986D01*
X129710494Y-137702697D01*
X129765641Y-137869119D01*
X129765643Y-137869124D01*
X129857684Y-138018345D01*
X129981654Y-138142315D01*
X130130875Y-138234356D01*
X130130880Y-138234358D01*
X130297302Y-138289505D01*
X130297309Y-138289506D01*
X130400019Y-138299999D01*
X131249999Y-138299999D01*
X131250000Y-138299998D01*
X131250000Y-137100001D01*
X131310402Y-137125021D01*
X131435981Y-137150000D01*
X131564019Y-137150000D01*
X131689598Y-137125021D01*
X131750000Y-137100001D01*
X131750000Y-138299999D01*
X132599972Y-138299999D01*
X132599986Y-138299998D01*
X132702697Y-138289505D01*
X132869119Y-138234358D01*
X132869124Y-138234356D01*
X133018345Y-138142315D01*
X133142315Y-138018345D01*
X133234356Y-137869124D01*
X133234358Y-137869119D01*
X133289505Y-137702697D01*
X133289506Y-137702690D01*
X133299999Y-137599986D01*
X133300000Y-137599973D01*
X133300000Y-136750000D01*
X132100001Y-136750000D01*
X132125021Y-136689598D01*
X132150000Y-136564019D01*
X132150000Y-136435981D01*
X132125021Y-136310402D01*
X132100001Y-136250000D01*
X133299999Y-136250000D01*
X133299999Y-135400028D01*
X133299998Y-135400013D01*
X133289505Y-135297302D01*
X133234358Y-135130880D01*
X133234356Y-135130875D01*
X133142315Y-134981654D01*
X133018345Y-134857684D01*
X132869124Y-134765643D01*
X132869119Y-134765641D01*
X132702697Y-134710494D01*
X132702690Y-134710493D01*
X132599986Y-134700000D01*
X131750000Y-134700000D01*
X131750000Y-135899998D01*
X131689598Y-135874979D01*
X131564019Y-135850000D01*
X131435981Y-135850000D01*
X131310402Y-135874979D01*
X131250000Y-135899998D01*
X131250000Y-134700000D01*
X130400028Y-134700000D01*
X130400012Y-134700001D01*
X130297302Y-134710494D01*
X130130880Y-134765641D01*
X130130875Y-134765643D01*
X129981654Y-134857684D01*
X129857684Y-134981654D01*
X129765643Y-135130875D01*
X129765641Y-135130880D01*
X129710494Y-135297302D01*
X129710493Y-135297309D01*
X129700000Y-135400013D01*
X116483684Y-135400013D01*
X116577782Y-135337139D01*
X116717139Y-135197782D01*
X116717139Y-135197780D01*
X116727347Y-135187573D01*
X116727348Y-135187570D01*
X125412320Y-126502599D01*
X125473641Y-126469116D01*
X125543333Y-126474100D01*
X125587680Y-126502601D01*
X129771964Y-130686885D01*
X129805449Y-130748208D01*
X129800465Y-130817900D01*
X129798845Y-130822016D01*
X129791399Y-130839992D01*
X129791395Y-130840004D01*
X129730306Y-131067989D01*
X129699501Y-131301979D01*
X129699500Y-131301995D01*
X129699500Y-131538004D01*
X129699501Y-131538020D01*
X129730306Y-131772010D01*
X129791394Y-131999993D01*
X129881714Y-132218045D01*
X129881719Y-132218056D01*
X129937989Y-132315517D01*
X129999727Y-132422450D01*
X129999729Y-132422453D01*
X129999730Y-132422454D01*
X130143406Y-132609697D01*
X130143412Y-132609704D01*
X130310295Y-132776587D01*
X130310301Y-132776592D01*
X130497550Y-132920273D01*
X130628918Y-132996118D01*
X130701943Y-133038280D01*
X130701948Y-133038282D01*
X130701951Y-133038284D01*
X130920007Y-133128606D01*
X131147986Y-133189693D01*
X131381989Y-133220500D01*
X131381996Y-133220500D01*
X131618004Y-133220500D01*
X131618011Y-133220500D01*
X131852014Y-133189693D01*
X132079993Y-133128606D01*
X132298049Y-133038284D01*
X132502450Y-132920273D01*
X132689699Y-132776592D01*
X132856592Y-132609699D01*
X133000273Y-132422450D01*
X133118284Y-132218049D01*
X133208606Y-131999993D01*
X133269693Y-131772014D01*
X133300500Y-131538011D01*
X133300500Y-131301989D01*
X133269693Y-131067986D01*
X133208606Y-130840007D01*
X133118284Y-130621951D01*
X133118282Y-130621948D01*
X133118280Y-130621943D01*
X133048164Y-130500500D01*
X133000273Y-130417550D01*
X132856592Y-130230301D01*
X132856587Y-130230295D01*
X132689704Y-130063412D01*
X132689697Y-130063406D01*
X132502454Y-129919730D01*
X132502453Y-129919729D01*
X132502450Y-129919727D01*
X132420957Y-129872677D01*
X132298056Y-129801719D01*
X132298045Y-129801714D01*
X132079993Y-129711394D01*
X131852010Y-129650306D01*
X131618020Y-129619501D01*
X131618017Y-129619500D01*
X131618011Y-129619500D01*
X131618004Y-129619500D01*
X131585783Y-129619500D01*
X131518744Y-129599815D01*
X131498102Y-129583181D01*
X126536819Y-124621898D01*
X126503334Y-124560575D01*
X126500500Y-124534217D01*
X126500500Y-109401456D01*
X126473910Y-109267784D01*
X126473910Y-109267779D01*
X126462053Y-109208172D01*
X126462052Y-109208165D01*
X126386632Y-109026086D01*
X126386631Y-109026085D01*
X126386628Y-109026079D01*
X126277140Y-108862219D01*
X126277137Y-108862215D01*
X122714583Y-105299663D01*
X122688059Y-105256374D01*
X122686869Y-105256868D01*
X122685005Y-105252367D01*
X122632591Y-105149500D01*
X122594787Y-105075306D01*
X122571300Y-105042978D01*
X122539182Y-104998771D01*
X122515702Y-104932965D01*
X122515500Y-104925886D01*
X122515500Y-95450782D01*
X122535185Y-95383743D01*
X122551819Y-95363101D01*
X129777137Y-88137784D01*
X129777137Y-88137783D01*
X129777140Y-88137781D01*
X129886632Y-87973914D01*
X129962052Y-87791835D01*
X130000501Y-87598540D01*
X130000501Y-87401459D01*
X130000501Y-87396349D01*
X130000500Y-87396323D01*
X130000500Y-75401459D01*
X129991158Y-75354496D01*
X129962052Y-75208165D01*
X129886632Y-75026086D01*
X129886631Y-75026085D01*
X129886628Y-75026079D01*
X129777140Y-74862219D01*
X129777137Y-74862215D01*
X126784209Y-71869289D01*
X126784206Y-71869285D01*
X126784206Y-71869286D01*
X126777139Y-71862219D01*
X126777139Y-71862218D01*
X126637782Y-71722861D01*
X126637781Y-71722860D01*
X126637780Y-71722859D01*
X126473920Y-71613371D01*
X126473911Y-71613366D01*
X126401315Y-71583296D01*
X126345165Y-71560038D01*
X126291836Y-71537949D01*
X126291832Y-71537948D01*
X126291828Y-71537946D01*
X126195188Y-71518724D01*
X126098544Y-71499500D01*
X126098541Y-71499500D01*
X115901459Y-71499500D01*
X115901455Y-71499500D01*
X115804812Y-71518724D01*
X115708167Y-71537947D01*
X115708161Y-71537949D01*
X115654834Y-71560037D01*
X115654834Y-71560038D01*
X115609315Y-71578892D01*
X115526089Y-71613366D01*
X115526079Y-71613371D01*
X115362219Y-71722859D01*
X115292540Y-71792538D01*
X115222861Y-71862218D01*
X115222858Y-71862221D01*
X111471897Y-75613181D01*
X111410574Y-75646666D01*
X111384216Y-75649500D01*
X110602129Y-75649500D01*
X110602123Y-75649501D01*
X110542516Y-75655908D01*
X110407671Y-75706202D01*
X110407664Y-75706206D01*
X110292455Y-75792452D01*
X110292452Y-75792455D01*
X110206206Y-75907664D01*
X110206204Y-75907668D01*
X110206204Y-75907669D01*
X110202039Y-75918834D01*
X110160171Y-75974766D01*
X110094707Y-75999184D01*
X110085859Y-75999500D01*
X89414141Y-75999500D01*
X89347102Y-75979815D01*
X89301347Y-75927011D01*
X89297969Y-75918859D01*
X89293796Y-75907669D01*
X89293793Y-75907665D01*
X89293793Y-75907664D01*
X89207547Y-75792455D01*
X89207544Y-75792452D01*
X89092335Y-75706206D01*
X89092328Y-75706202D01*
X88957482Y-75655908D01*
X88957483Y-75655908D01*
X88897883Y-75649501D01*
X88897881Y-75649500D01*
X88897873Y-75649500D01*
X88897865Y-75649500D01*
X88115782Y-75649500D01*
X88048743Y-75629815D01*
X88028101Y-75613181D01*
X86281479Y-73866559D01*
X86281459Y-73866537D01*
X86137785Y-73722863D01*
X86137781Y-73722860D01*
X85973916Y-73613369D01*
X85973911Y-73613366D01*
X85901315Y-73583296D01*
X85845165Y-73560038D01*
X85791836Y-73537949D01*
X85791832Y-73537948D01*
X85791828Y-73537946D01*
X85695188Y-73518724D01*
X85598544Y-73499500D01*
X85598541Y-73499500D01*
X75565087Y-73499500D01*
X75368006Y-73499500D01*
X75368003Y-73499500D01*
X75174718Y-73537946D01*
X75174714Y-73537948D01*
X75174712Y-73537948D01*
X75174711Y-73537949D01*
X75099292Y-73569188D01*
X75099290Y-73569189D01*
X74992632Y-73613368D01*
X74992632Y-73613369D01*
X74992631Y-73613369D01*
X74828769Y-73722857D01*
X74828761Y-73722863D01*
X73343464Y-75208162D01*
X73012220Y-75539406D01*
X73012218Y-75539408D01*
X72970207Y-75581419D01*
X72872859Y-75678766D01*
X72763371Y-75842626D01*
X72763364Y-75842639D01*
X72687950Y-76024707D01*
X72687947Y-76024717D01*
X72649500Y-76218003D01*
X72649500Y-76218006D01*
X72649500Y-85190017D01*
X72649500Y-85190019D01*
X72649499Y-85190019D01*
X42000500Y-85190019D01*
X42000500Y-61459155D01*
X88073978Y-61459155D01*
X110603514Y-61459155D01*
X110603514Y-58642803D01*
X88073978Y-58642803D01*
X88073978Y-61459155D01*
X42000500Y-61459155D01*
X42000500Y-58378711D01*
X44649500Y-58378711D01*
X44649500Y-58621288D01*
X44681161Y-58861785D01*
X44743947Y-59096104D01*
X44836773Y-59320205D01*
X44836776Y-59320212D01*
X44958064Y-59530289D01*
X44958066Y-59530292D01*
X44958067Y-59530293D01*
X45105733Y-59722736D01*
X45105739Y-59722743D01*
X45277256Y-59894260D01*
X45277262Y-59894265D01*
X45469711Y-60041936D01*
X45679788Y-60163224D01*
X45903900Y-60256054D01*
X46138211Y-60318838D01*
X46318586Y-60342584D01*
X46378711Y-60350500D01*
X46378712Y-60350500D01*
X46621289Y-60350500D01*
X46669388Y-60344167D01*
X46861789Y-60318838D01*
X47096100Y-60256054D01*
X47320212Y-60163224D01*
X47530289Y-60041936D01*
X47722738Y-59894265D01*
X47894265Y-59722738D01*
X48041936Y-59530289D01*
X48163224Y-59320212D01*
X48256054Y-59096100D01*
X48318838Y-58861789D01*
X48350500Y-58621288D01*
X48350500Y-58378712D01*
X48350500Y-58378711D01*
X149649500Y-58378711D01*
X149649500Y-58621288D01*
X149681161Y-58861785D01*
X149743947Y-59096104D01*
X149836773Y-59320205D01*
X149836776Y-59320212D01*
X149958064Y-59530289D01*
X149958066Y-59530292D01*
X149958067Y-59530293D01*
X150105733Y-59722736D01*
X150105739Y-59722743D01*
X150277256Y-59894260D01*
X150277262Y-59894265D01*
X150469711Y-60041936D01*
X150679788Y-60163224D01*
X150903900Y-60256054D01*
X151138211Y-60318838D01*
X151318586Y-60342584D01*
X151378711Y-60350500D01*
X151378712Y-60350500D01*
X151621289Y-60350500D01*
X151669388Y-60344167D01*
X151861789Y-60318838D01*
X152096100Y-60256054D01*
X152320212Y-60163224D01*
X152530289Y-60041936D01*
X152722738Y-59894265D01*
X152894265Y-59722738D01*
X153041936Y-59530289D01*
X153163224Y-59320212D01*
X153256054Y-59096100D01*
X153318838Y-58861789D01*
X153350500Y-58621288D01*
X153350500Y-58378712D01*
X153318838Y-58138211D01*
X153256054Y-57903900D01*
X153163224Y-57679788D01*
X153041936Y-57469711D01*
X152894265Y-57277262D01*
X152894260Y-57277256D01*
X152722743Y-57105739D01*
X152722736Y-57105733D01*
X152530293Y-56958067D01*
X152530292Y-56958066D01*
X152530289Y-56958064D01*
X152320212Y-56836776D01*
X152320205Y-56836773D01*
X152096104Y-56743947D01*
X151861785Y-56681161D01*
X151621289Y-56649500D01*
X151621288Y-56649500D01*
X151378712Y-56649500D01*
X151378711Y-56649500D01*
X151138214Y-56681161D01*
X150903895Y-56743947D01*
X150679794Y-56836773D01*
X150679785Y-56836777D01*
X150469706Y-56958067D01*
X150277263Y-57105733D01*
X150277256Y-57105739D01*
X150105739Y-57277256D01*
X150105733Y-57277263D01*
X149958067Y-57469706D01*
X149836777Y-57679785D01*
X149836773Y-57679794D01*
X149743947Y-57903895D01*
X149681161Y-58138214D01*
X149649500Y-58378711D01*
X48350500Y-58378711D01*
X48318838Y-58138211D01*
X48256054Y-57903900D01*
X48163224Y-57679788D01*
X48041936Y-57469711D01*
X47894265Y-57277262D01*
X47894260Y-57277256D01*
X47722743Y-57105739D01*
X47722736Y-57105733D01*
X47530293Y-56958067D01*
X47530292Y-56958066D01*
X47530289Y-56958064D01*
X47320212Y-56836776D01*
X47320205Y-56836773D01*
X47096104Y-56743947D01*
X46861785Y-56681161D01*
X46621289Y-56649500D01*
X46621288Y-56649500D01*
X46378712Y-56649500D01*
X46378711Y-56649500D01*
X46138214Y-56681161D01*
X45903895Y-56743947D01*
X45679794Y-56836773D01*
X45679785Y-56836777D01*
X45469706Y-56958067D01*
X45277263Y-57105733D01*
X45277256Y-57105739D01*
X45105739Y-57277256D01*
X45105733Y-57277263D01*
X44958067Y-57469706D01*
X44836777Y-57679785D01*
X44836773Y-57679794D01*
X44743947Y-57903895D01*
X44681161Y-58138214D01*
X44649500Y-58378711D01*
X42000500Y-58378711D01*
X42000500Y-55124500D01*
X42020185Y-55057461D01*
X42072989Y-55011706D01*
X42124500Y-55000500D01*
X155875500Y-55000500D01*
X155942539Y-55020185D01*
G37*
%TD.AperFunction*%
%TD*%
%TA.AperFunction,NonConductor*%
G36*
X82448813Y-75520185D02*
G01*
X82494568Y-75572989D01*
X82504512Y-75642147D01*
X82475487Y-75705703D01*
X82420093Y-75742430D01*
X82401588Y-75748443D01*
X82401585Y-75748444D01*
X82212179Y-75844951D01*
X82036266Y-75972759D01*
X82035635Y-75971891D01*
X81976581Y-75998359D01*
X81959800Y-75999500D01*
X81340200Y-75999500D01*
X81273161Y-75979815D01*
X81260634Y-75970506D01*
X81087820Y-75844951D01*
X80898414Y-75748444D01*
X80898413Y-75748443D01*
X80898412Y-75748443D01*
X80879907Y-75742430D01*
X80822232Y-75702994D01*
X80795034Y-75638635D01*
X80806949Y-75569789D01*
X80854193Y-75518313D01*
X80918226Y-75500500D01*
X82381774Y-75500500D01*
X82448813Y-75520185D01*
G37*
%TD.AperFunction*%
%TA.AperFunction,NonConductor*%
G36*
X79908813Y-75520185D02*
G01*
X79954568Y-75572989D01*
X79964512Y-75642147D01*
X79935487Y-75705703D01*
X79880093Y-75742430D01*
X79861588Y-75748443D01*
X79861585Y-75748444D01*
X79672179Y-75844951D01*
X79500213Y-75969890D01*
X79349890Y-76120213D01*
X79224949Y-76292182D01*
X79220484Y-76300946D01*
X79172509Y-76351742D01*
X79104688Y-76368536D01*
X79038553Y-76345998D01*
X78999516Y-76300946D01*
X78995050Y-76292182D01*
X78870109Y-76120213D01*
X78719786Y-75969890D01*
X78547820Y-75844951D01*
X78358414Y-75748444D01*
X78358413Y-75748443D01*
X78358412Y-75748443D01*
X78339907Y-75742430D01*
X78282232Y-75702994D01*
X78255034Y-75638635D01*
X78266949Y-75569789D01*
X78314193Y-75518313D01*
X78378226Y-75500500D01*
X79841774Y-75500500D01*
X79908813Y-75520185D01*
G37*
%TD.AperFunction*%
%TA.AperFunction,NonConductor*%
G36*
X77368813Y-75520185D02*
G01*
X77414568Y-75572989D01*
X77424512Y-75642147D01*
X77395487Y-75705703D01*
X77340093Y-75742430D01*
X77321588Y-75748443D01*
X77321585Y-75748444D01*
X77132179Y-75844951D01*
X76960213Y-75969890D01*
X76809890Y-76120213D01*
X76684949Y-76292182D01*
X76680484Y-76300946D01*
X76632509Y-76351742D01*
X76564688Y-76368536D01*
X76498553Y-76345998D01*
X76459516Y-76300946D01*
X76455050Y-76292182D01*
X76330109Y-76120213D01*
X76179786Y-75969890D01*
X76007819Y-75844951D01*
X76007818Y-75844950D01*
X76007816Y-75844949D01*
X75847669Y-75763350D01*
X75796873Y-75715375D01*
X75780078Y-75647554D01*
X75802615Y-75581419D01*
X75816286Y-75565181D01*
X75844653Y-75536816D01*
X75905977Y-75503333D01*
X75932331Y-75500500D01*
X77301774Y-75500500D01*
X77368813Y-75520185D01*
G37*
%TD.AperFunction*%
%TA.AperFunction,NonConductor*%
G36*
X112918834Y-87258600D02*
G01*
X112974767Y-87300472D01*
X112999184Y-87365936D01*
X112999500Y-87374782D01*
X112999500Y-92193651D01*
X112979815Y-92260690D01*
X112927011Y-92306445D01*
X112857853Y-92316389D01*
X112794297Y-92287364D01*
X112787819Y-92281332D01*
X112679400Y-92172913D01*
X112679391Y-92172905D01*
X112471343Y-92013262D01*
X112244240Y-91882145D01*
X112244230Y-91882140D01*
X112001968Y-91781792D01*
X112001961Y-91781790D01*
X112001959Y-91781789D01*
X111748656Y-91713917D01*
X111690879Y-91706310D01*
X111488667Y-91679687D01*
X111488660Y-91679687D01*
X111226420Y-91679687D01*
X111226412Y-91679687D01*
X110995312Y-91710113D01*
X110966424Y-91713917D01*
X110897661Y-91732342D01*
X110713121Y-91781789D01*
X110713111Y-91781792D01*
X110470849Y-91882140D01*
X110470839Y-91882145D01*
X110243736Y-92013262D01*
X110057527Y-92156148D01*
X109992358Y-92181343D01*
X109923913Y-92167305D01*
X109873923Y-92118491D01*
X109858040Y-92057773D01*
X109858040Y-90268242D01*
X109877725Y-90201203D01*
X109894359Y-90180561D01*
X112787819Y-87287101D01*
X112849142Y-87253616D01*
X112918834Y-87258600D01*
G37*
%TD.AperFunction*%
%TA.AperFunction,NonConductor*%
G36*
X76641444Y-77653999D02*
G01*
X76680486Y-77699056D01*
X76684951Y-77707820D01*
X76812759Y-77883734D01*
X76811888Y-77884366D01*
X76838357Y-77943401D01*
X76839500Y-77960199D01*
X76839500Y-79438541D01*
X76839500Y-79438543D01*
X76839499Y-79438543D01*
X76877947Y-79631829D01*
X76877950Y-79631839D01*
X76953364Y-79813907D01*
X76953371Y-79813920D01*
X77062859Y-79977780D01*
X77062860Y-79977781D01*
X77062861Y-79977782D01*
X77202218Y-80117139D01*
X77202219Y-80117139D01*
X77209286Y-80124206D01*
X77209285Y-80124206D01*
X77209289Y-80124209D01*
X88553085Y-91468006D01*
X88586570Y-91529329D01*
X88581586Y-91599021D01*
X88539714Y-91654954D01*
X88474250Y-91679371D01*
X88465404Y-91679687D01*
X88226412Y-91679687D01*
X87995312Y-91710113D01*
X87966424Y-91713917D01*
X87897661Y-91732342D01*
X87713121Y-91781789D01*
X87713111Y-91781792D01*
X87470849Y-91882140D01*
X87470839Y-91882145D01*
X87243736Y-92013262D01*
X87035688Y-92172905D01*
X86850258Y-92358335D01*
X86690615Y-92566383D01*
X86559498Y-92793486D01*
X86559493Y-92793496D01*
X86459145Y-93035758D01*
X86459142Y-93035768D01*
X86394739Y-93276127D01*
X86391270Y-93289072D01*
X86357040Y-93549059D01*
X86357040Y-93811314D01*
X86377976Y-93970327D01*
X86391270Y-94071303D01*
X86427861Y-94207862D01*
X86457452Y-94318299D01*
X86455789Y-94388149D01*
X86416626Y-94446011D01*
X86352398Y-94473515D01*
X86283496Y-94461928D01*
X86249996Y-94438073D01*
X76336819Y-84524896D01*
X76303334Y-84463573D01*
X76300500Y-84437215D01*
X76300500Y-77960199D01*
X76320185Y-77893160D01*
X76329471Y-77880664D01*
X76455048Y-77707820D01*
X76455047Y-77707820D01*
X76455051Y-77707816D01*
X76459514Y-77699054D01*
X76507488Y-77648259D01*
X76575308Y-77631463D01*
X76641444Y-77653999D01*
G37*
%TD.AperFunction*%
%TA.AperFunction,NonConductor*%
G36*
X124816855Y-78295788D02*
G01*
X124847684Y-78358488D01*
X124849500Y-78379634D01*
X124849500Y-85084216D01*
X124829815Y-85151255D01*
X124813181Y-85171897D01*
X115211381Y-94773696D01*
X115150058Y-94807181D01*
X115080366Y-94802197D01*
X115024433Y-94760325D01*
X115000016Y-94694861D01*
X115000297Y-94673859D01*
X115000500Y-94671798D01*
X115000500Y-87465782D01*
X115020185Y-87398743D01*
X115036819Y-87378101D01*
X124028101Y-78386819D01*
X124089424Y-78353334D01*
X124115782Y-78350500D01*
X124306286Y-78350500D01*
X124306287Y-78350500D01*
X124516243Y-78317246D01*
X124687186Y-78261702D01*
X124757022Y-78259708D01*
X124816855Y-78295788D01*
G37*
%TD.AperFunction*%
%TA.AperFunction,NonConductor*%
G36*
X110057524Y-95204223D02*
G01*
X110106600Y-95241881D01*
X110243736Y-95347111D01*
X110470839Y-95478228D01*
X110470849Y-95478233D01*
X110707761Y-95576365D01*
X110713121Y-95578585D01*
X110966424Y-95646457D01*
X111199131Y-95677094D01*
X111263027Y-95705361D01*
X111301498Y-95763685D01*
X111302329Y-95833550D01*
X111270626Y-95887714D01*
X110069721Y-97088619D01*
X110008398Y-97122104D01*
X109938706Y-97117120D01*
X109882773Y-97075248D01*
X109858356Y-97009784D01*
X109858040Y-97000938D01*
X109858040Y-95302600D01*
X109877725Y-95235561D01*
X109930529Y-95189806D01*
X109999687Y-95179862D01*
X110057524Y-95204223D01*
G37*
%TD.AperFunction*%
%TA.AperFunction,NonConductor*%
G36*
X89791167Y-95193068D02*
G01*
X89841157Y-95241881D01*
X89857040Y-95302600D01*
X89857040Y-97800174D01*
X89837355Y-97867213D01*
X89784551Y-97912968D01*
X89715393Y-97922912D01*
X89651837Y-97893887D01*
X89629938Y-97869065D01*
X89527140Y-97715217D01*
X89503378Y-97691455D01*
X89387782Y-97575859D01*
X89387781Y-97575858D01*
X87599653Y-95787730D01*
X87566168Y-95726407D01*
X87571152Y-95656715D01*
X87613024Y-95600782D01*
X87678488Y-95576365D01*
X87719422Y-95580273D01*
X87966424Y-95646457D01*
X88226420Y-95680687D01*
X88226427Y-95680687D01*
X88488653Y-95680687D01*
X88488660Y-95680687D01*
X88748656Y-95646457D01*
X89001959Y-95578585D01*
X89244237Y-95478230D01*
X89471343Y-95347111D01*
X89657555Y-95204223D01*
X89722722Y-95179030D01*
X89791167Y-95193068D01*
G37*
%TD.AperFunction*%
%TA.AperFunction,NonConductor*%
G36*
X77055703Y-88074067D02*
G01*
X77062181Y-88080099D01*
X86550125Y-97568044D01*
X86583610Y-97629367D01*
X86578626Y-97699059D01*
X86536754Y-97754992D01*
X86500762Y-97773656D01*
X86327370Y-97829993D01*
X86327367Y-97829994D01*
X86150305Y-97920213D01*
X85989533Y-98037021D01*
X85849021Y-98177533D01*
X85732213Y-98338305D01*
X85641994Y-98515367D01*
X85641993Y-98515370D01*
X85580587Y-98704362D01*
X85549500Y-98900639D01*
X85549500Y-99099360D01*
X85580587Y-99295637D01*
X85641993Y-99484629D01*
X85641994Y-99484632D01*
X85732213Y-99661694D01*
X85849019Y-99822464D01*
X85989536Y-99962981D01*
X86150306Y-100079787D01*
X86250499Y-100130838D01*
X86306780Y-100159515D01*
X86357576Y-100207490D01*
X86374371Y-100275311D01*
X86351833Y-100341446D01*
X86306780Y-100380485D01*
X86150305Y-100460213D01*
X85989533Y-100577021D01*
X85849021Y-100717533D01*
X85732213Y-100878305D01*
X85641994Y-101055367D01*
X85641993Y-101055370D01*
X85580587Y-101244362D01*
X85549500Y-101440639D01*
X85549500Y-101639360D01*
X85580587Y-101835637D01*
X85641993Y-102024629D01*
X85641994Y-102024632D01*
X85732213Y-102201694D01*
X85849019Y-102362464D01*
X85989536Y-102502981D01*
X86150306Y-102619787D01*
X86250499Y-102670838D01*
X86306780Y-102699515D01*
X86357576Y-102747490D01*
X86374371Y-102815311D01*
X86351833Y-102881446D01*
X86306780Y-102920485D01*
X86150305Y-103000213D01*
X85989533Y-103117021D01*
X85849021Y-103257533D01*
X85732213Y-103418305D01*
X85641994Y-103595367D01*
X85641993Y-103595370D01*
X85580587Y-103784362D01*
X85549500Y-103980639D01*
X85549500Y-104179360D01*
X85580587Y-104375637D01*
X85641993Y-104564629D01*
X85641994Y-104564632D01*
X85711543Y-104701127D01*
X85732213Y-104741694D01*
X85849019Y-104902464D01*
X85989536Y-105042981D01*
X86150306Y-105159787D01*
X86306781Y-105239515D01*
X86357576Y-105287488D01*
X86374371Y-105355309D01*
X86351834Y-105421444D01*
X86306782Y-105460483D01*
X86256736Y-105485984D01*
X86200439Y-105499500D01*
X78460200Y-105499500D01*
X78393161Y-105479815D01*
X78380634Y-105470506D01*
X78207820Y-105344951D01*
X78018414Y-105248444D01*
X78018413Y-105248443D01*
X78018412Y-105248443D01*
X77816243Y-105182754D01*
X77816241Y-105182753D01*
X77816240Y-105182753D01*
X77654957Y-105157208D01*
X77606287Y-105149500D01*
X77393713Y-105149500D01*
X77345042Y-105157208D01*
X77183760Y-105182753D01*
X77183757Y-105182754D01*
X77012817Y-105238296D01*
X76942977Y-105240291D01*
X76883144Y-105204211D01*
X76852316Y-105141510D01*
X76850500Y-105120365D01*
X76850500Y-88167780D01*
X76870185Y-88100741D01*
X76922989Y-88054986D01*
X76992147Y-88045042D01*
X77055703Y-88074067D01*
G37*
%TD.AperFunction*%
%TA.AperFunction,NonConductor*%
G36*
X85922732Y-107520185D02*
G01*
X85943374Y-107536819D01*
X85989536Y-107582981D01*
X86150306Y-107699787D01*
X86306781Y-107779515D01*
X86357576Y-107827488D01*
X86374371Y-107895309D01*
X86351834Y-107961444D01*
X86306782Y-108000483D01*
X86256736Y-108025984D01*
X86200439Y-108039500D01*
X78460200Y-108039500D01*
X78393161Y-108019815D01*
X78380634Y-108010506D01*
X78207820Y-107884951D01*
X78207115Y-107884591D01*
X78199054Y-107880485D01*
X78148259Y-107832512D01*
X78131463Y-107764692D01*
X78153999Y-107698556D01*
X78199054Y-107659515D01*
X78207816Y-107655051D01*
X78307017Y-107582978D01*
X78383734Y-107527241D01*
X78384364Y-107528108D01*
X78443419Y-107501641D01*
X78460200Y-107500500D01*
X85855693Y-107500500D01*
X85922732Y-107520185D01*
G37*
%TD.AperFunction*%
%TA.AperFunction,NonConductor*%
G36*
X113929794Y-104494113D02*
G01*
X113962815Y-104517735D01*
X114463181Y-105018101D01*
X114496666Y-105079424D01*
X114499500Y-105105782D01*
X114499500Y-109545217D01*
X114479815Y-109612256D01*
X114427011Y-109658011D01*
X114357853Y-109667955D01*
X114294297Y-109638930D01*
X114287819Y-109632898D01*
X113886819Y-109231898D01*
X113853334Y-109170575D01*
X113850500Y-109144217D01*
X113850500Y-109060639D01*
X113831143Y-108938425D01*
X113819413Y-108864364D01*
X113775283Y-108728544D01*
X113758006Y-108675370D01*
X113758005Y-108675367D01*
X113705600Y-108572518D01*
X113667787Y-108498306D01*
X113550981Y-108337536D01*
X113410464Y-108197019D01*
X113249694Y-108080213D01*
X113093218Y-108000484D01*
X113042423Y-107952510D01*
X113025628Y-107884689D01*
X113048165Y-107818554D01*
X113093218Y-107779515D01*
X113249694Y-107699787D01*
X113410464Y-107582981D01*
X113550981Y-107442464D01*
X113667787Y-107281694D01*
X113758005Y-107104632D01*
X113819413Y-106915636D01*
X113850500Y-106719361D01*
X113850500Y-106520639D01*
X113819413Y-106324364D01*
X113758005Y-106135368D01*
X113758005Y-106135367D01*
X113667786Y-105958305D01*
X113550981Y-105797536D01*
X113410464Y-105657019D01*
X113249694Y-105540213D01*
X113093218Y-105460484D01*
X113042423Y-105412510D01*
X113025628Y-105344689D01*
X113048165Y-105278554D01*
X113093218Y-105239515D01*
X113249694Y-105159787D01*
X113410464Y-105042981D01*
X113550981Y-104902464D01*
X113667787Y-104741694D01*
X113758005Y-104564632D01*
X113758006Y-104564629D01*
X113759869Y-104560132D01*
X113761514Y-104560813D01*
X113796596Y-104509459D01*
X113860942Y-104482231D01*
X113929794Y-104494113D01*
G37*
%TD.AperFunction*%
%TA.AperFunction,NonConductor*%
G36*
X120770926Y-111837185D02*
G01*
X120776763Y-111841175D01*
X120853306Y-111896787D01*
X120971832Y-111957179D01*
X121009780Y-111976515D01*
X121060576Y-112024490D01*
X121077371Y-112092311D01*
X121054833Y-112158446D01*
X121009780Y-112197485D01*
X120853305Y-112277213D01*
X120804900Y-112312381D01*
X120776771Y-112332818D01*
X120710967Y-112356298D01*
X120703887Y-112356500D01*
X117062783Y-112356500D01*
X116995744Y-112336815D01*
X116975102Y-112320181D01*
X116684102Y-112029181D01*
X116650617Y-111967858D01*
X116655601Y-111898166D01*
X116697473Y-111842233D01*
X116762937Y-111817816D01*
X116771783Y-111817500D01*
X116915540Y-111817500D01*
X120703887Y-111817500D01*
X120770926Y-111837185D01*
G37*
%TD.AperFunction*%
%TA.AperFunction,NonConductor*%
G36*
X86067926Y-112720185D02*
G01*
X86073763Y-112724175D01*
X86150306Y-112779787D01*
X86250499Y-112830838D01*
X86306780Y-112859515D01*
X86357576Y-112907490D01*
X86374371Y-112975311D01*
X86351833Y-113041446D01*
X86306780Y-113080485D01*
X86150305Y-113160213D01*
X86140949Y-113167011D01*
X86073771Y-113215818D01*
X86007967Y-113239298D01*
X86000887Y-113239500D01*
X85174783Y-113239500D01*
X85107744Y-113219815D01*
X85061989Y-113167011D01*
X85052045Y-113097853D01*
X85081070Y-113034297D01*
X85087102Y-113027819D01*
X85378102Y-112736819D01*
X85439425Y-112703334D01*
X85465783Y-112700500D01*
X86000887Y-112700500D01*
X86067926Y-112720185D01*
G37*
%TD.AperFunction*%
%TA.AperFunction,NonConductor*%
G36*
X79181444Y-77653999D02*
G01*
X79220486Y-77699056D01*
X79224951Y-77707820D01*
X79349890Y-77879786D01*
X79500213Y-78030109D01*
X79672179Y-78155048D01*
X79672181Y-78155049D01*
X79672184Y-78155051D01*
X79861588Y-78251557D01*
X80063757Y-78317246D01*
X80273713Y-78350500D01*
X80273714Y-78350500D01*
X80486286Y-78350500D01*
X80486287Y-78350500D01*
X80696243Y-78317246D01*
X80898412Y-78251557D01*
X81087816Y-78155051D01*
X81129866Y-78124500D01*
X81263734Y-78027241D01*
X81264364Y-78028108D01*
X81323419Y-78001641D01*
X81340200Y-78000500D01*
X81795500Y-78000500D01*
X81862539Y-78020185D01*
X81908294Y-78072989D01*
X81919500Y-78124500D01*
X81919500Y-78518541D01*
X81919500Y-78518543D01*
X81919499Y-78518543D01*
X81957947Y-78711829D01*
X81957950Y-78711839D01*
X82033364Y-78893907D01*
X82033371Y-78893920D01*
X82142860Y-79057781D01*
X82142863Y-79057785D01*
X82286537Y-79201459D01*
X82286559Y-79201479D01*
X84719735Y-81634655D01*
X84719764Y-81634686D01*
X84862214Y-81777136D01*
X84862218Y-81777139D01*
X85026079Y-81886628D01*
X85026092Y-81886635D01*
X85154833Y-81939961D01*
X85197744Y-81957735D01*
X85208164Y-81962051D01*
X85304812Y-81981275D01*
X85353135Y-81990887D01*
X85401458Y-82000500D01*
X85401459Y-82000500D01*
X114098542Y-82000500D01*
X114117870Y-81996655D01*
X114195188Y-81981275D01*
X114291836Y-81962051D01*
X114345165Y-81939961D01*
X114473914Y-81886632D01*
X114637782Y-81777139D01*
X114777139Y-81637782D01*
X114777140Y-81637779D01*
X114784206Y-81630714D01*
X114784209Y-81630710D01*
X117217778Y-79197141D01*
X117217782Y-79197139D01*
X117357139Y-79057782D01*
X117466632Y-78893914D01*
X117542051Y-78711835D01*
X117580500Y-78518541D01*
X117580500Y-78124500D01*
X117600185Y-78057461D01*
X117652989Y-78011706D01*
X117704500Y-78000500D01*
X118159800Y-78000500D01*
X118226839Y-78020185D01*
X118239365Y-78029493D01*
X118412179Y-78155048D01*
X118412181Y-78155049D01*
X118412184Y-78155051D01*
X118601588Y-78251557D01*
X118704958Y-78285144D01*
X118762634Y-78324582D01*
X118789832Y-78388940D01*
X118777917Y-78457787D01*
X118754321Y-78490756D01*
X110210862Y-87034217D01*
X108219760Y-89025319D01*
X108219758Y-89025321D01*
X108150078Y-89095000D01*
X108080399Y-89164679D01*
X107970911Y-89328539D01*
X107970904Y-89328552D01*
X107895490Y-89510620D01*
X107895487Y-89510630D01*
X107857040Y-89703916D01*
X107857040Y-99676677D01*
X107837355Y-99743716D01*
X107820721Y-99764358D01*
X92069721Y-115515358D01*
X92008398Y-115548843D01*
X91938706Y-115543859D01*
X91882773Y-115501987D01*
X91858356Y-115436523D01*
X91858040Y-115427677D01*
X91858040Y-92462215D01*
X91858041Y-92462194D01*
X91858041Y-92258997D01*
X91858040Y-92258995D01*
X91840917Y-92172913D01*
X91819592Y-92065705D01*
X91744172Y-91883626D01*
X91744171Y-91883625D01*
X91744168Y-91883619D01*
X91634680Y-91719759D01*
X91634677Y-91719755D01*
X78876819Y-78961897D01*
X78843334Y-78900574D01*
X78840500Y-78874216D01*
X78840500Y-77960199D01*
X78860185Y-77893160D01*
X78869471Y-77880664D01*
X78995048Y-77707820D01*
X78995047Y-77707820D01*
X78995051Y-77707816D01*
X78999514Y-77699054D01*
X79047488Y-77648259D01*
X79115308Y-77631463D01*
X79181444Y-77653999D01*
G37*
%TD.AperFunction*%
%TA.AperFunction,NonConductor*%
G36*
X110968199Y-101949234D02*
G01*
X111024132Y-101991106D01*
X111039358Y-102020460D01*
X111040134Y-102020139D01*
X111041993Y-102024630D01*
X111132213Y-102201694D01*
X111249019Y-102362464D01*
X111389536Y-102502981D01*
X111550306Y-102619787D01*
X111650499Y-102670838D01*
X111706780Y-102699515D01*
X111757576Y-102747490D01*
X111774371Y-102815311D01*
X111751833Y-102881446D01*
X111706780Y-102920485D01*
X111550305Y-103000213D01*
X111389533Y-103117021D01*
X111249021Y-103257533D01*
X111132213Y-103418305D01*
X111041994Y-103595367D01*
X111041993Y-103595370D01*
X110980587Y-103784362D01*
X110949500Y-103980639D01*
X110949500Y-104179360D01*
X110980587Y-104375637D01*
X111041993Y-104564629D01*
X111041994Y-104564632D01*
X111111543Y-104701127D01*
X111132213Y-104741694D01*
X111249019Y-104902464D01*
X111389536Y-105042981D01*
X111550306Y-105159787D01*
X111637493Y-105204211D01*
X111706780Y-105239515D01*
X111757576Y-105287490D01*
X111774371Y-105355311D01*
X111751833Y-105421446D01*
X111706780Y-105460485D01*
X111550305Y-105540213D01*
X111389533Y-105657021D01*
X111249021Y-105797533D01*
X111132213Y-105958305D01*
X111041994Y-106135367D01*
X111041993Y-106135370D01*
X110980587Y-106324362D01*
X110949500Y-106520639D01*
X110949500Y-106719360D01*
X110980587Y-106915637D01*
X111041993Y-107104629D01*
X111041994Y-107104632D01*
X111103188Y-107224730D01*
X111132213Y-107281694D01*
X111249019Y-107442464D01*
X111389536Y-107582981D01*
X111550306Y-107699787D01*
X111650499Y-107750838D01*
X111706780Y-107779515D01*
X111757576Y-107827490D01*
X111774371Y-107895311D01*
X111751833Y-107961446D01*
X111706780Y-108000485D01*
X111550305Y-108080213D01*
X111389533Y-108197021D01*
X111249021Y-108337533D01*
X111132213Y-108498305D01*
X111041994Y-108675367D01*
X111041993Y-108675370D01*
X110980587Y-108864362D01*
X110949500Y-109060639D01*
X110949500Y-109259360D01*
X110980587Y-109455637D01*
X111041993Y-109644629D01*
X111041994Y-109644632D01*
X111132213Y-109821694D01*
X111249019Y-109982464D01*
X111389536Y-110122981D01*
X111550306Y-110239787D01*
X111628082Y-110279416D01*
X111706780Y-110319515D01*
X111757576Y-110367490D01*
X111774371Y-110435311D01*
X111751833Y-110501446D01*
X111706780Y-110540485D01*
X111550305Y-110620213D01*
X111389533Y-110737021D01*
X111249021Y-110877533D01*
X111132213Y-111038305D01*
X111041994Y-111215367D01*
X111041993Y-111215370D01*
X110980587Y-111404362D01*
X110949500Y-111600639D01*
X110949500Y-111799360D01*
X110980587Y-111995637D01*
X111041993Y-112184629D01*
X111041994Y-112184632D01*
X111132213Y-112361694D01*
X111249019Y-112522464D01*
X111389536Y-112662981D01*
X111550306Y-112779787D01*
X111650499Y-112830838D01*
X111706780Y-112859515D01*
X111757576Y-112907490D01*
X111774371Y-112975311D01*
X111751833Y-113041446D01*
X111706780Y-113080485D01*
X111550305Y-113160213D01*
X111389533Y-113277021D01*
X111249021Y-113417533D01*
X111132213Y-113578305D01*
X111041994Y-113755367D01*
X111041993Y-113755370D01*
X110980587Y-113944362D01*
X110949500Y-114140639D01*
X110949500Y-114224218D01*
X110929815Y-114291257D01*
X110913181Y-114311899D01*
X90139899Y-135085181D01*
X90078576Y-135118666D01*
X90052218Y-135121500D01*
X88503700Y-135121500D01*
X88436661Y-135101815D01*
X88390906Y-135049011D01*
X88380962Y-134979853D01*
X88385769Y-134959182D01*
X88419413Y-134855636D01*
X88450500Y-134659361D01*
X88450500Y-134460639D01*
X88419413Y-134264364D01*
X88358005Y-134075368D01*
X88358005Y-134075367D01*
X88312035Y-133985149D01*
X88267787Y-133898306D01*
X88150981Y-133737536D01*
X88010464Y-133597019D01*
X87849694Y-133480213D01*
X87693218Y-133400484D01*
X87642423Y-133352510D01*
X87625628Y-133284689D01*
X87648165Y-133218554D01*
X87693218Y-133179515D01*
X87849694Y-133099787D01*
X88010464Y-132982981D01*
X88150981Y-132842464D01*
X88267787Y-132681694D01*
X88358005Y-132504632D01*
X88419413Y-132315636D01*
X88450500Y-132119361D01*
X88450500Y-131920639D01*
X88419413Y-131724364D01*
X88358864Y-131538011D01*
X88358006Y-131535370D01*
X88358005Y-131535367D01*
X88305613Y-131432544D01*
X88267787Y-131358306D01*
X88150981Y-131197536D01*
X88010464Y-131057019D01*
X87849694Y-130940213D01*
X87693218Y-130860484D01*
X87642423Y-130812510D01*
X87625628Y-130744689D01*
X87648165Y-130678554D01*
X87693218Y-130639515D01*
X87849694Y-130559787D01*
X88010464Y-130442981D01*
X88150981Y-130302464D01*
X88267787Y-130141694D01*
X88358005Y-129964632D01*
X88419413Y-129775636D01*
X88450500Y-129579361D01*
X88450500Y-129380639D01*
X88419413Y-129184364D01*
X88388709Y-129089866D01*
X88358006Y-128995370D01*
X88358005Y-128995367D01*
X88290161Y-128862218D01*
X88267787Y-128818306D01*
X88150981Y-128657536D01*
X88010464Y-128517019D01*
X87849694Y-128400213D01*
X87693218Y-128320484D01*
X87642423Y-128272510D01*
X87625628Y-128204689D01*
X87648165Y-128138554D01*
X87693218Y-128099515D01*
X87849694Y-128019787D01*
X88010464Y-127902981D01*
X88150981Y-127762464D01*
X88267787Y-127601694D01*
X88358005Y-127424632D01*
X88419413Y-127235636D01*
X88450500Y-127039361D01*
X88450500Y-126840639D01*
X88419413Y-126644364D01*
X88373352Y-126502601D01*
X88358006Y-126455370D01*
X88358005Y-126455367D01*
X88267786Y-126278305D01*
X88150981Y-126117536D01*
X88010464Y-125977019D01*
X87849694Y-125860213D01*
X87693218Y-125780484D01*
X87642423Y-125732510D01*
X87625628Y-125664689D01*
X87648165Y-125598554D01*
X87693218Y-125559515D01*
X87849694Y-125479787D01*
X88010464Y-125362981D01*
X88150981Y-125222464D01*
X88267787Y-125061694D01*
X88358005Y-124884632D01*
X88419413Y-124695636D01*
X88450500Y-124499361D01*
X88450500Y-124415782D01*
X88470185Y-124348743D01*
X88486819Y-124328101D01*
X99654707Y-113160213D01*
X110837186Y-101977733D01*
X110898507Y-101944250D01*
X110968199Y-101949234D01*
G37*
%TD.AperFunction*%
%TA.AperFunction,NonConductor*%
G36*
X86095453Y-130520185D02*
G01*
X86101299Y-130524182D01*
X86142224Y-130553915D01*
X86150306Y-130559787D01*
X86272309Y-130621951D01*
X86306780Y-130639515D01*
X86357576Y-130687490D01*
X86374371Y-130755311D01*
X86351833Y-130821446D01*
X86306780Y-130860485D01*
X86150305Y-130940213D01*
X85989533Y-131057021D01*
X85849021Y-131197533D01*
X85732213Y-131358305D01*
X85641994Y-131535367D01*
X85641993Y-131535370D01*
X85580587Y-131724362D01*
X85549500Y-131920639D01*
X85549500Y-132119360D01*
X85580587Y-132315637D01*
X85641993Y-132504629D01*
X85641994Y-132504632D01*
X85728894Y-132675180D01*
X85732213Y-132681694D01*
X85849019Y-132842464D01*
X85989536Y-132982981D01*
X86150306Y-133099787D01*
X86268832Y-133160179D01*
X86306780Y-133179515D01*
X86357576Y-133227490D01*
X86374371Y-133295311D01*
X86351833Y-133361446D01*
X86306780Y-133400485D01*
X86150305Y-133480213D01*
X85989533Y-133597021D01*
X85849021Y-133737533D01*
X85732213Y-133898305D01*
X85641994Y-134075367D01*
X85641993Y-134075370D01*
X85580587Y-134264362D01*
X85549500Y-134460639D01*
X85549500Y-134659360D01*
X85580587Y-134855637D01*
X85614231Y-134959182D01*
X85616226Y-135029023D01*
X85580146Y-135088856D01*
X85517445Y-135119684D01*
X85496300Y-135121500D01*
X82322782Y-135121500D01*
X82255743Y-135101815D01*
X82235101Y-135085181D01*
X79886423Y-132736503D01*
X79852938Y-132675180D01*
X79850657Y-132659708D01*
X79850500Y-132658716D01*
X79850500Y-132658713D01*
X79817246Y-132448757D01*
X79751557Y-132246588D01*
X79655051Y-132057184D01*
X79655049Y-132057181D01*
X79655048Y-132057179D01*
X79530109Y-131885213D01*
X79416569Y-131771673D01*
X79383084Y-131710350D01*
X79388068Y-131640658D01*
X79429940Y-131584725D01*
X79460915Y-131567810D01*
X79592331Y-131518796D01*
X79707546Y-131432546D01*
X79793796Y-131317331D01*
X79844091Y-131182483D01*
X79850500Y-131122873D01*
X79850500Y-130624500D01*
X79870185Y-130557461D01*
X79922989Y-130511706D01*
X79974500Y-130500500D01*
X86028414Y-130500500D01*
X86095453Y-130520185D01*
G37*
%TD.AperFunction*%
%TA.AperFunction,NonConductor*%
G36*
X77877253Y-148292501D02*
G01*
X77906988Y-148307054D01*
X78026079Y-148386628D01*
X78026092Y-148386635D01*
X78154833Y-148439961D01*
X78197447Y-148457612D01*
X78208164Y-148462051D01*
X78304812Y-148481275D01*
X78353135Y-148490887D01*
X78401458Y-148500500D01*
X78401459Y-148500500D01*
X78401460Y-148500500D01*
X78598540Y-148500500D01*
X125525500Y-148500500D01*
X125592539Y-148520185D01*
X125638294Y-148572989D01*
X125649500Y-148624500D01*
X125649500Y-149384217D01*
X125629815Y-149451256D01*
X125613181Y-149471898D01*
X123671899Y-151413181D01*
X123610576Y-151446666D01*
X123584218Y-151449500D01*
X77218235Y-151449500D01*
X77151196Y-151429815D01*
X77105441Y-151377011D01*
X77095497Y-151307853D01*
X77124522Y-151244297D01*
X77130545Y-151237827D01*
X77407778Y-150960594D01*
X77407782Y-150960592D01*
X77547139Y-150821235D01*
X77656632Y-150657367D01*
X77732051Y-150475288D01*
X77754792Y-150360963D01*
X77770500Y-150281996D01*
X77770500Y-148787538D01*
X77770560Y-148783674D01*
X77773085Y-148702683D01*
X77773084Y-148702677D01*
X77772188Y-148697299D01*
X77770500Y-148676908D01*
X77770500Y-148671458D01*
X77764053Y-148639049D01*
X77754685Y-148591955D01*
X77754007Y-148588245D01*
X77740677Y-148508281D01*
X77738747Y-148503180D01*
X77733112Y-148483502D01*
X77732669Y-148481273D01*
X77732051Y-148478165D01*
X77723536Y-148457609D01*
X77716067Y-148388143D01*
X77747340Y-148325663D01*
X77807428Y-148290009D01*
X77877253Y-148292501D01*
G37*
%TD.AperFunction*%
M02*
